<svg width="42" height="44" viewBox="0 0 42 44" fill="none" xmlns="http://www.w3.org/2000/svg">
<path d="M8.32275 34.1615H33.6509C34.0571 34.1615 34.3957 33.8229 34.3957 33.4062C34.3957 32.9896 34.0571 32.651 33.6509 32.651H30.6665V16.8177C30.6665 16.401 30.3332 16.0625 29.9217 16.0625H28.4321C28.0259 16.0625 27.6873 16.401 27.6873 16.8177V32.651H24.7082V19.8333C24.7082 19.4167 24.3748 19.0781 23.9634 19.0781H22.4738C22.0623 19.0781 21.729 19.4167 21.729 19.8333V32.651H18.7498V22.849C18.7498 22.4323 18.4165 22.0938 18.005 22.0938H16.5155C16.104 22.0938 15.7707 22.4323 15.7707 22.849V32.651H12.7915V27.375C12.7915 26.9583 12.453 26.6198 12.0467 26.6198H10.5571C10.1457 26.6198 9.81234 26.9583 9.81234 27.375V32.651H8.32275C7.9113 32.651 7.57275 32.9896 7.57275 33.4062C7.57275 33.8229 7.9113 34.1615 8.32275 34.1615Z" fill="#040606"/>
<path d="M9.17174 22.4791C9.30715 22.7135 9.55715 22.8489 9.81236 22.8489C9.94257 22.8489 10.0728 22.8176 10.1926 22.7395L28.7759 11.5728L28.4582 12.8645C28.354 13.2656 28.5988 13.677 28.9999 13.776C29.0572 13.7916 29.1197 13.7968 29.1769 13.7968C29.5155 13.7968 29.8176 13.5676 29.9009 13.2291L30.6457 10.2135C30.7499 9.80722 30.5051 9.39576 30.104 9.29681L27.1249 8.5416C26.7238 8.44264 26.3228 8.68743 26.2238 9.09368C26.1197 9.49472 26.3644 9.90618 26.7655 10.0051L27.9582 10.3072L9.42695 21.4478C9.07799 21.6562 8.9582 22.1197 9.17174 22.4791Z" fill="#040606"/>
<mask id="mask0_49_3" style="mask-type:luminance" maskUnits="userSpaceOnUse" x="0" y="0" width="42" height="44">
<path d="M0 0H41.9688V43.9635H0V0Z" fill="white"/>
</mask>
<g mask="url(#mask0_49_3)">
<path d="M20.9844 1.73441V0.942739C20.9844 0.359406 20.349 0.0156553 19.8698 0.338573L17.5781 1.88545C17.151 2.17191 17.151 2.80211 17.5781 3.09378L19.8698 4.64066C20.349 4.95837 20.9844 4.61461 20.9844 4.03649V3.23961C31.6667 3.23961 40.3542 12.0365 40.3542 22.849C40.3542 33.6563 31.6667 42.4532 20.9844 42.4532C10.3073 42.4532 1.61458 33.6563 1.61458 22.849C1.61458 22.4323 1.28125 22.0938 0.869792 22.0938C0.458333 22.0938 0.125 22.4323 0.125 22.849C0.125 34.4948 9.47917 43.9636 20.9844 43.9636C32.4896 43.9636 41.8438 34.4948 41.8438 22.849C41.8438 11.2032 32.4896 1.73441 20.9844 1.73441Z" fill="#040606"/>
</g>
<mask id="mask1_49_3" style="mask-type:luminance" maskUnits="userSpaceOnUse" x="0" y="18" width="3" height="3">
<path d="M0 18.1302H2.13021V20.7969H0V18.1302Z" fill="white"/>
</mask>
<g mask="url(#mask1_49_3)">
<path d="M0.979154 20.5782C1.02082 20.5834 1.05207 20.5886 1.08853 20.5886C1.45311 20.5886 1.77082 20.3178 1.8229 19.9428C1.86457 19.698 1.90624 19.4584 1.9479 19.2188C2.02082 18.8074 1.7552 18.4115 1.34895 18.3334C0.947904 18.2605 0.557278 18.5313 0.484362 18.9376C0.432278 19.198 0.390611 19.4584 0.354154 19.7188C0.291654 20.1303 0.572903 20.5157 0.979154 20.5782Z" fill="#040606"/>
</g>
<path d="M1.76542 16.7708C1.84876 16.8021 1.93209 16.8177 2.01542 16.8177C2.32271 16.8177 2.60917 16.6198 2.71855 16.3125C2.80188 16.0677 2.89563 15.8281 2.98417 15.5886C3.14042 15.2031 2.95292 14.7604 2.56751 14.6042C2.1873 14.4479 1.755 14.6406 1.60396 15.0261C1.4998 15.2865 1.40605 15.5469 1.3123 15.8125C1.17688 16.2031 1.3748 16.6354 1.76542 16.7708Z" fill="#040606"/>
<path d="M3.39579 12.9323C3.51558 13.0104 3.651 13.0469 3.78121 13.0469C4.03121 13.0469 4.276 12.9167 4.41663 12.6823C4.56767 12.4375 4.71871 12.1927 4.88017 11.9531C5.10934 11.6094 5.01558 11.1406 4.67184 10.9115C4.33329 10.6823 3.86975 10.7708 3.64059 11.1198C3.46871 11.3698 3.30725 11.6354 3.14579 11.9011C2.93225 12.2552 3.04684 12.7188 3.39579 12.9323Z" fill="#040606"/>
<path d="M6.08318 9.92185C6.29152 9.92185 6.48943 9.83852 6.64047 9.67706C6.82798 9.46352 7.02068 9.25519 7.22381 9.05206C7.51027 8.75519 7.51027 8.28123 7.2186 7.98435C6.92693 7.69269 6.45818 7.69789 6.16652 7.98956C5.94777 8.20831 5.73943 8.43748 5.5311 8.66664C5.25506 8.96873 5.2811 9.44789 5.58318 9.72914C5.72902 9.85935 5.9061 9.92185 6.08318 9.92185Z" fill="#040606"/>
<path d="M9.06763 7.20316C9.21868 7.20316 9.37493 7.15108 9.50513 7.05212C9.70305 6.90629 9.90618 6.76045 10.1093 6.61983C10.4478 6.38545 10.5364 5.92191 10.3072 5.57295C10.0728 5.22921 9.6093 5.14066 9.27076 5.37504C9.05201 5.52608 8.83326 5.68233 8.62493 5.83858C8.29159 6.08858 8.22388 6.55733 8.46347 6.89587C8.6093 7.09379 8.83847 7.20316 9.06763 7.20316Z" fill="#040606"/>
<path d="M12.1717 5.29685C12.2811 5.29685 12.3957 5.2708 12.4998 5.21872C12.6925 5.11976 12.8957 5.02601 13.0936 4.93747C13.4686 4.76559 13.6404 4.31768 13.4686 3.94268C13.3019 3.56247 12.8644 3.39059 12.4894 3.56247C12.2707 3.65622 12.0571 3.75518 11.8436 3.86455C11.4738 4.04685 11.3227 4.49476 11.505 4.86976C11.63 5.14059 11.8957 5.29685 12.1717 5.29685Z" fill="#040606"/>
</svg>
