<svg width="53" height="45" viewBox="0 0 53 45" fill="none" xmlns="http://www.w3.org/2000/svg">
<mask id="mask0_8_6770" style="mask-type:luminance" maskUnits="userSpaceOnUse" x="25" y="0" width="3" height="8">
<path d="M25 0.447998H27.6667V7.91154H25V0.447998Z" fill="white"/>
</mask>
<g mask="url(#mask0_8_6770)">
<path d="M26.5782 6.88029C27.0573 6.88029 27.375 6.56258 27.375 6.08862V1.23966C27.375 0.765706 27.0573 0.447998 26.5782 0.447998C26.1042 0.447998 25.7865 0.765706 25.7865 1.23966V6.16675C25.7865 6.56258 26.1042 6.88029 26.5782 6.88029Z" fill="white"/>
</g>
<mask id="mask1_8_6770" style="mask-type:luminance" maskUnits="userSpaceOnUse" x="25" y="37" width="3" height="8">
<path d="M25 37.2449H27.6667V44.4115H25V37.2449Z" fill="white"/>
</mask>
<g mask="url(#mask1_8_6770)">
<path d="M26.5782 37.8646C26.1042 37.8646 25.7865 38.1823 25.7865 38.6615V43.5834C25.7865 44.0625 26.1042 44.3802 26.5782 44.3802C27.0573 44.3802 27.375 44.0625 27.375 43.5834V38.6615C27.375 38.1823 27.0573 37.8646 26.5782 37.8646Z" fill="white"/>
</g>
<path d="M41.9896 11.4897L46.4427 7.99495C46.7605 7.75537 46.8386 7.19808 46.599 6.88037C46.3594 6.56266 45.8073 6.48453 45.4896 6.72412L41.0365 10.2189C40.7188 10.4585 40.6407 11.0158 40.8802 11.3335C41.1198 11.7293 41.5938 11.7293 41.9896 11.4897Z" fill="white"/>
<path d="M11.1665 33.2553L6.71862 36.672C6.40092 36.9115 6.32279 37.4688 6.56237 37.7865C6.79675 38.1043 7.35404 38.1824 7.67175 37.9428L12.1197 34.448C12.4374 34.2084 12.5207 33.6563 12.2811 33.3386C12.0415 33.0209 11.5676 33.0209 11.1665 33.2553Z" fill="white"/>
<path d="M41.9895 33.2553C41.6718 33.021 41.1197 33.021 40.8801 33.4168C40.6405 33.7345 40.6405 34.2918 41.0364 34.5262L45.4895 38.0262C45.8072 38.2606 46.3593 38.2606 46.5989 37.8647C46.8384 37.547 46.8384 36.9897 46.4426 36.7553L41.9895 33.2553Z" fill="white"/>
<path d="M11.1666 11.4896C11.4844 11.7292 12.0416 11.7292 12.2812 11.3334C12.5208 11.0156 12.5208 10.4583 12.1198 10.2188L7.67185 6.72398C7.35414 6.48439 6.79685 6.48439 6.56248 6.88023C6.32289 7.28127 6.32289 7.75522 6.71873 7.99481L11.1666 11.4896Z" fill="white"/>
<path d="M34.4428 8.07304C34.8438 8.31262 35.3178 8.15116 35.5574 7.75533L38.0209 3.22929C38.2605 2.82825 38.099 2.35429 37.7032 2.1147C37.3074 1.87512 36.8282 2.03658 36.5886 2.43241L34.1251 6.96366C33.8907 7.3595 34.047 7.83345 34.4428 8.07304Z" fill="white"/>
<path d="M18.7135 36.672C18.3177 36.4376 17.8437 36.5938 17.6041 36.9897L15.1406 41.5209C14.901 41.9168 15.0625 42.3907 15.4583 42.6303C15.8541 42.8699 16.3333 42.7136 16.5677 42.3126L19.0312 37.7865C19.2708 37.3907 19.1145 36.9115 18.7135 36.672Z" fill="white"/>
<path d="M52.0833 29.8439L46.2812 27.9324C45.8853 27.7762 45.4062 28.0158 45.2499 28.4116C45.0885 28.8074 45.3281 29.2866 45.7239 29.4429L51.526 31.3491C51.9218 31.5106 52.401 31.271 52.5572 30.8752C52.7187 30.4793 52.4791 30.0002 52.0833 29.8439Z" fill="white"/>
<mask id="mask2_8_6770" style="mask-type:luminance" maskUnits="userSpaceOnUse" x="0" y="13" width="9" height="5">
<path d="M0.276123 13.2449H9.00008V17.2449H0.276123V13.2449Z" fill="white"/>
</mask>
<g mask="url(#mask2_8_6770)">
<path d="M1.0782 14.9063L6.88028 16.8126C7.27612 16.974 7.75008 16.7344 7.91153 16.3386C8.06778 15.9376 7.83341 15.4636 7.43237 15.3021L1.63549 13.3959C1.23966 13.2396 0.760492 13.474 0.604243 13.8751C0.442784 14.2709 0.682368 14.7448 1.0782 14.9063Z" fill="white"/>
</g>
<path d="M45.4062 16.4948C45.5677 16.8906 45.9635 17.1302 46.4427 17.0521L52.3177 15.224C52.7187 15.0625 52.9531 14.6667 52.875 14.1927C52.7187 13.7917 52.3177 13.5573 51.8437 13.6354L45.9635 15.4636C45.4896 15.6198 45.25 16.099 45.4062 16.4948Z" fill="white"/>
<mask id="mask3_8_6770" style="mask-type:luminance" maskUnits="userSpaceOnUse" x="0" y="26" width="9" height="6">
<path d="M0.276123 26.5782H9.00008V31.9116H0.276123V26.5782Z" fill="white"/>
</mask>
<g mask="url(#mask3_8_6770)">
<path d="M7.75009 28.2501C7.59384 27.8543 7.19801 27.6147 6.71884 27.698L0.92197 29.5261C0.520928 29.6824 0.286553 30.0782 0.364678 30.5574C0.520927 30.9532 0.921969 31.1928 1.39593 31.1147L7.27614 29.2866C7.67197 29.1251 7.91155 28.6512 7.75009 28.2501Z" fill="white"/>
</g>
<path d="M35.1615 37.073C34.9219 36.672 34.4427 36.5157 34.0469 36.7553C33.6511 36.9897 33.4896 37.4689 33.7292 37.8647L36.1146 42.3907C36.349 42.7918 36.8282 42.948 37.224 42.7137C37.625 42.4741 37.7813 41.9949 37.5417 41.5991L35.1615 37.073Z" fill="white"/>
<path d="M18 7.6772C18.2396 8.07304 18.7135 8.2345 19.1146 7.99491C19.5104 7.75533 19.6667 7.28137 19.4323 6.88033L17.0469 2.35429C16.8073 1.95845 16.3333 1.79699 15.9323 2.03658C15.5365 2.27616 15.3802 2.75012 15.6146 3.15116L18 7.6772Z" fill="white"/>
<path d="M26.5781 11.7292C15.2187 11.7292 6.16146 21.422 5.76562 21.8178C5.44792 22.1355 5.44792 22.6095 5.76562 22.9324C6.16146 23.3282 15.2187 33.0209 26.5781 33.0209C37.9427 33.0209 46.9948 23.3282 47.3958 22.9324C47.7135 22.6095 47.7135 22.1355 47.3958 21.8178C46.9948 21.422 37.9427 11.7292 26.5781 11.7292ZM26.5781 31.4324C21.5729 31.4324 17.526 27.3803 17.526 22.3751C17.526 17.3699 21.5729 13.3178 26.5781 13.3178C31.5833 13.3178 35.6354 17.3699 35.6354 22.3751C35.6354 27.3803 31.5833 31.4324 26.5781 31.4324ZM19.1927 14.7449C17.2083 16.6563 15.9323 19.3542 15.9323 22.3751C15.9323 25.3907 17.2083 28.0938 19.1927 30.0001C13.3906 27.8542 8.94271 23.8022 7.51562 22.3751C8.94271 20.9428 13.3906 16.8907 19.1927 14.7449ZM33.9688 30.0001C35.9531 28.0938 37.224 25.3907 37.224 22.3751C37.224 19.3542 35.9531 16.6563 33.9688 14.7449C39.7656 16.8907 44.2188 20.9428 45.6458 22.3751C44.2188 23.8022 39.7656 27.8542 33.9688 30.0001Z" fill="white"/>
<path d="M26.5782 16.3386C23.2449 16.3386 20.5417 19.0365 20.5417 22.3751C20.5417 25.7084 23.2449 28.4115 26.5782 28.4115C29.9167 28.4115 32.6199 25.7084 32.6199 22.3751C32.6199 19.0365 29.9167 16.3386 26.5782 16.3386ZM26.5782 26.823C24.1199 26.823 22.1303 24.8386 22.1303 22.3751C22.1303 19.9115 24.1199 17.9272 26.5782 17.9272C29.0417 17.9272 31.0313 19.9115 31.0313 22.3751C31.0313 24.8386 29.0417 26.823 26.5782 26.823Z" fill="white"/>
</svg>
