<svg width="67" height="35" viewBox="0 0 67 35" fill="none" xmlns="http://www.w3.org/2000/svg">
<mask id="mask0_8_3256" style="mask-type:luminance" maskUnits="userSpaceOnUse" x="0" y="0" width="67" height="35">
<path d="M0.192627 0.947876H66.1353V34.9218H0.192627V0.947876Z" fill="white"/>
</mask>
<g mask="url(#mask0_8_3256)">
<path d="M65.5051 14.4323C65.3437 13.7864 65.1249 13.1562 64.7134 12.6198C64.5312 12.3802 64.3228 12.1562 64.1301 11.9271C63.9218 11.6771 63.6926 11.4427 63.3853 11.3125C63.0937 11.1927 62.9009 10.901 62.5312 10.901C62.0989 10.901 61.6666 10.7864 61.2343 10.7708C60.9895 10.7656 60.7395 10.9375 60.4999 10.7552C60.177 10.8646 59.8072 10.8594 59.5676 11.1666C59.5103 11.2344 59.4062 11.2708 59.328 11.3229C59.2447 11.375 59.1509 11.4114 59.0884 11.4791C58.8489 11.7448 58.6249 12.0156 58.3905 12.2812C58.0155 12.6979 57.8176 13.2083 57.6353 13.7291C57.5676 13.9219 57.5416 14.1354 57.4218 14.3073C57.2447 14.5573 57.078 14.8125 56.8853 15.0469C56.3853 15.651 56.0364 16.3489 55.7447 17.0677C55.578 17.4844 55.4374 17.9062 55.2916 18.3333C55.2134 18.5573 55.1457 18.7864 55.0937 19.0208C55.0155 19.3906 55.0155 19.7916 54.8853 20.1406C54.6718 20.7187 54.3905 21.276 54.1197 21.8281C54.0312 22.0104 53.8905 22.1614 53.7759 22.3281C53.677 22.4687 53.6093 22.6562 53.4895 22.7656C53.4999 22.7864 53.5051 22.8125 53.5103 22.8385C53.4895 22.8229 53.4686 22.8125 53.4478 22.7969C53.4426 22.8021 53.4374 22.8073 53.4322 22.8125C53.2186 22.9323 53.2759 23.1666 53.1249 23.2969C53.052 23.3594 52.9791 23.4323 52.9114 23.5104C52.802 23.6354 52.5832 23.6458 52.5624 23.8646C52.1822 24.1875 51.8645 24.5937 51.3228 24.6875C51.1457 24.7187 50.9791 24.8073 50.8124 24.8802C50.5832 24.9739 50.3593 25.0104 50.1457 24.8594C50.0468 24.7864 49.9687 24.7708 49.9009 24.8906C49.8176 25.0364 49.6926 25.0469 49.5676 25.026C49.4947 24.9271 49.4322 24.8385 49.3645 24.7552C49.2916 24.8125 49.2395 24.8594 49.1666 24.9166C49.1718 24.8125 49.177 24.7448 49.1874 24.6719C49.0937 24.7239 49.0155 24.7656 48.9739 24.7916C48.9062 24.7135 48.8593 24.6562 48.7968 24.5885C48.828 24.5416 48.8697 24.4844 48.9218 24.401C48.6405 24.2969 48.4687 24.0989 48.2759 23.8958C47.9739 23.5729 47.8228 23.1719 47.6197 22.8073C47.6197 22.8437 47.6197 22.8802 47.6197 22.9114C47.6041 22.9114 47.5832 22.9114 47.5676 22.9114C47.5676 22.8541 47.5676 22.7916 47.5676 22.7291C47.5728 22.7291 47.578 22.7291 47.5832 22.7291C47.453 22.4635 47.4478 22.125 47.3957 21.8177C47.3541 21.5885 47.4582 21.4375 47.6822 21.3541C47.7968 21.3125 47.9166 21.2864 48.0259 21.2291C48.2812 21.0989 48.5364 20.9583 48.7916 20.8229C48.7916 20.8125 48.7916 20.8021 48.7916 20.7916C48.8072 20.7969 48.8228 20.7969 48.8384 20.7969C48.9895 20.7135 49.1457 20.6302 49.2968 20.5469C49.328 20.5312 49.3541 20.5104 49.3749 20.4844C49.5051 20.375 49.6301 20.2656 49.7551 20.1562C50.2187 19.7344 50.6978 19.3281 51.1457 18.8906C51.3853 18.6562 51.5832 18.3802 51.7916 18.1146C52.1562 17.6614 52.5312 17.2187 52.8749 16.75C53.1562 16.3594 53.4062 15.9479 53.6509 15.5312C53.828 15.2239 53.9634 14.8958 54.1197 14.5781C54.2447 14.3125 54.3697 14.0521 54.4999 13.7916C54.5468 13.6927 54.6093 13.5989 54.6614 13.5052C54.5884 13.4427 54.5155 13.3802 54.4426 13.3177C54.4374 13.3177 54.4374 13.3177 54.4322 13.3229C54.4322 13.3177 54.4374 13.3125 54.4374 13.3073C54.3749 13.2291 54.3124 13.151 54.2447 13.0781C54.3957 13.0989 54.5155 13.1406 54.4374 13.3073C54.4374 13.3073 54.4374 13.3125 54.4426 13.3125C54.4426 13.3125 54.4426 13.3125 54.4426 13.3177C54.6145 13.2344 54.677 13.2916 54.7082 13.3854C54.7134 13.3854 54.7134 13.3802 54.7134 13.3802C54.8593 12.9323 54.9947 12.4791 55.1353 12.0312C55.203 11.8021 55.2395 11.5625 55.3437 11.3541C55.5728 10.875 55.6822 10.375 55.7551 9.85935C55.7707 9.74998 55.828 9.65102 55.8645 9.54685C55.8801 9.49998 55.9166 9.4531 55.9218 9.40623C55.9791 8.7604 56.0155 8.10935 56.0884 7.46873C56.177 6.6354 56.1249 5.80206 56.0937 4.97394C56.0832 4.68748 55.9634 4.40102 55.953 4.11456C55.9426 3.73956 55.7968 3.41144 55.6718 3.0781C55.6562 3.11456 55.6405 3.15102 55.6249 3.18748C55.5989 3.17185 55.5676 3.16144 55.5416 3.14581C55.5728 3.08852 55.6041 3.02602 55.6301 2.96873C55.6041 2.89061 55.5832 2.81769 55.5624 2.74477C55.5416 2.67185 55.4895 2.60415 55.4478 2.53644C55.3749 2.42706 55.2864 2.32811 55.2134 2.21352C55.1145 2.04685 54.9947 1.90102 54.8645 1.77602C54.8332 1.84894 54.8072 1.91665 54.7759 1.97915C54.7759 1.97915 54.7812 1.97915 54.7812 1.98435H54.7759C54.7812 1.99477 54.7812 2.0104 54.7759 2.02081C54.7916 2.11456 54.8124 2.21352 54.8384 2.38019C54.6301 2.21873 54.7603 2.11977 54.7759 2.02081C54.7759 2.0104 54.7759 1.99998 54.7707 1.99477C54.7759 1.98956 54.7759 1.98435 54.7759 1.97915C54.7499 1.86456 54.7082 1.74998 54.703 1.6354C54.552 1.5104 54.3853 1.41144 54.1978 1.3281C54.1093 1.28644 53.9895 1.29165 53.9166 1.23435C53.6093 0.994772 53.2343 1.03644 52.8853 0.963522C52.8384 0.953106 52.7812 0.989564 52.7239 0.99998C52.6197 1.02081 52.5155 1.03644 52.4062 1.05727C52.3228 1.0781 52.2291 1.08852 52.1509 1.12498C51.9687 1.20311 51.802 1.32811 51.578 1.25519C51.5155 1.23435 51.4166 1.30727 51.3489 1.35935C51.2968 1.39581 51.2707 1.47394 51.2134 1.50519C50.7343 1.76561 50.3228 2.10935 49.9426 2.49477C49.7812 2.66144 49.6145 2.82811 49.4739 3.0104C49.2916 3.24998 49.1614 3.53123 48.9582 3.75519C48.6405 4.10935 48.4166 4.51561 48.1874 4.92706C47.9374 5.3854 47.6718 5.83331 47.4322 6.30206C47.2812 6.60415 47.1614 6.92185 47.0364 7.23435C47.0468 7.23435 47.052 7.23435 47.0624 7.22915C47.0312 7.28123 47.0051 7.3229 46.9843 7.35935C46.7759 7.85415 46.5572 8.33852 46.3853 8.83852C46.1614 9.47915 45.9739 10.125 45.7812 10.7708C45.6874 11.0729 45.6093 11.3802 45.5416 11.6875C45.453 12.0885 45.3905 12.4948 45.302 12.8958C45.2187 13.2552 45.0989 13.6094 45.0155 13.9687C44.9166 14.4166 44.8384 14.8698 44.7447 15.3177C44.6666 15.7239 44.552 16.125 44.4999 16.5364C44.4478 16.9635 44.4739 17.3906 44.4218 17.8229C44.3593 18.3021 44.328 18.7708 44.1405 19.2187C44.0728 19.3854 44.0259 19.5573 43.9478 19.7187C43.8801 19.8646 43.927 20.0208 43.8124 20.1823C43.6301 20.4479 43.578 20.7969 43.4478 21.1041C43.0989 21.9375 42.677 22.9739 41.7864 23.9375C41.7655 23.9583 41.7707 24 41.7551 24.026C41.6614 24.1771 41.5884 24.3437 41.4739 24.4687C41.3801 24.5729 41.1718 24.6146 41.1405 24.7187C41.078 24.9531 40.8801 25.0521 40.7343 25.1927C40.5572 25.375 40.3384 25.526 40.1197 25.651C39.9374 25.7552 39.7291 25.8125 39.5259 25.8698C39.3436 25.9219 39.1509 25.9271 38.9686 26C38.8853 26.0312 38.7551 25.9739 38.6509 25.9427C38.5936 25.9271 38.5416 25.8802 38.4739 25.8385C38.3593 25.9844 38.2603 26.1562 38.0311 26.0677C37.9843 25.9739 37.9322 25.875 37.8853 25.776C37.8541 25.7552 37.8228 25.7344 37.7916 25.7083C37.7603 25.7969 37.7239 25.8802 37.6874 25.9687C37.7186 25.9791 37.7499 25.9948 37.7811 26.0052C37.7759 26.0312 37.7655 26.0573 37.7551 26.0833C37.6874 26.0625 37.6145 26.0416 37.5416 26.0208C37.5572 25.9896 37.5728 25.9583 37.5832 25.9271C37.6041 25.9323 37.6249 25.9427 37.6405 25.9479C37.6509 25.875 37.6614 25.8073 37.6718 25.7239C37.5832 25.7708 37.5155 25.8073 37.4374 25.8437C37.4218 25.776 37.4166 25.7344 37.4061 25.6875C37.3176 25.6823 37.2343 25.6771 37.1509 25.6771C37.2395 25.6146 37.3176 25.5573 37.427 25.4791C37.1301 25.3594 36.9582 25.1771 36.7811 24.9687C36.2551 24.3489 36.0051 23.625 35.8749 22.8385C35.8436 22.6614 35.9061 22.5364 36.0728 22.4635C36.2134 22.4062 36.3645 22.3594 36.4999 22.2864C36.927 22.0677 37.3489 21.8333 37.7707 21.6041C37.802 21.5885 37.8228 21.5677 37.8489 21.5416C37.9843 21.4271 38.1197 21.3125 38.2551 21.1927C38.7186 20.7708 39.2134 20.3802 39.6405 19.9166C40.1666 19.3437 40.6405 18.7135 41.1301 18.1041C41.5728 17.5521 41.9218 16.9375 42.2655 16.3229C42.453 15.9791 42.6249 15.6302 42.802 15.2812C42.9322 15.0104 43.0728 14.7448 43.1822 14.4687C43.4634 13.7239 43.6197 12.9427 43.9374 12.2031C44.1093 11.7969 44.2603 11.3385 44.2395 10.8646C44.2343 10.8021 44.2812 10.7396 44.302 10.6771C44.3384 10.5469 44.3905 10.4219 44.4062 10.2969C44.4634 9.73956 44.5051 9.18227 44.5676 8.62498C44.6249 8.14581 44.6249 7.67185 44.6145 7.19269C44.5364 7.12498 44.4947 7.08852 44.4374 7.04685C44.4999 6.96873 44.552 6.90102 44.6041 6.83331C44.5989 6.58852 44.5884 6.34894 44.578 6.10415C44.5676 5.79685 44.453 5.48956 44.4426 5.17706C44.4218 4.68227 44.1666 4.2656 44.0572 3.80727C44.0416 3.74477 44.0051 3.67706 43.9582 3.63019C43.6874 3.33852 43.5572 2.94269 43.1978 2.70831C43.0051 2.57811 42.828 2.43227 42.5989 2.35935C42.5155 2.33331 42.4322 2.29165 42.3489 2.2604C42.2082 2.20311 42.0624 2.1354 41.9166 2.10935C41.6249 2.05206 41.328 1.93227 41.0416 2.12498C40.802 2.06248 40.6041 2.16665 40.4061 2.28123C40.3593 2.30727 40.2916 2.33331 40.2447 2.3229C40.2395 2.31769 40.2343 2.31769 40.2239 2.31769C40.2447 2.35415 40.2603 2.39581 40.2603 2.43227C40.2603 2.46352 40.1874 2.49998 40.1509 2.53123C40.1093 2.48435 40.0728 2.44269 40.0416 2.3906C40.0259 2.36456 40.0103 2.34373 39.9947 2.31769C39.8801 2.34894 39.7864 2.42706 39.703 2.54685C39.6457 2.61977 39.5416 2.66665 39.453 2.71352C38.9895 2.96352 38.6405 3.35415 38.2603 3.6979C38.1457 3.80206 38.052 3.93227 37.9582 4.05727C37.7134 4.3854 37.4686 4.71352 37.2395 5.05206C37.0416 5.34894 36.8593 5.65623 36.6822 5.96352C36.4166 6.42706 36.1457 6.8906 35.9061 7.36977C35.7395 7.69269 35.6197 8.03644 35.4739 8.37498C35.3645 8.62498 35.2447 8.86977 35.1405 9.11977C35.2551 9.17706 35.3436 9.21873 35.4374 9.2656C35.3228 9.37498 35.3124 9.39061 35.1197 9.17185C35.1041 9.21352 35.0884 9.25519 35.0728 9.29685C34.8645 9.89061 34.6718 10.4948 34.4895 11.0989C34.3124 11.6771 34.1509 12.2656 33.9947 12.8489C33.9582 12.9791 33.9634 13.1198 33.9322 13.25C33.8489 13.5833 33.7499 13.9114 33.677 14.2448C33.578 14.6719 33.4999 15.0989 33.4166 15.526C33.3072 16.0573 33.1926 16.5833 33.0936 17.1146C33.0311 17.4635 32.9322 17.8177 32.9582 18.1614C32.9947 18.5729 32.8905 18.9583 32.8541 19.3541C32.8124 19.8437 32.7082 20.3281 32.5728 20.8021C32.4218 21.3333 32.2395 21.8541 32.0207 22.3594C31.8436 22.776 31.6301 23.1823 31.4114 23.5885C31.0468 24.25 30.5989 24.8333 30.0728 25.3594C29.8436 25.5833 29.578 25.7708 29.3176 25.9687C29.3384 25.9948 29.3489 26.0156 29.3645 26.0364C29.328 26.0521 29.2916 26.0833 29.2603 26.0781C29.2447 26.0781 29.2239 26.0677 29.2082 26.0521C29.1926 26.0625 29.177 26.0781 29.1614 26.0885C28.8593 26.3281 28.5364 26.5156 28.1614 26.6354C27.8853 26.7239 27.6145 26.7291 27.3436 26.7708C26.802 26.8541 26.2916 26.75 25.8124 26.5312C24.9686 26.151 24.4686 25.4271 24.1041 24.6146C23.9009 24.1614 23.9166 23.651 23.8749 23.1562C23.8645 23.0833 23.927 23.0052 23.9582 22.9271C24.177 23.0625 24.3593 23.2135 24.5624 23.2916C24.953 23.4323 25.3541 23.5573 25.7603 23.651C25.9947 23.7083 26.2603 23.7604 26.4843 23.7031C26.7239 23.6406 26.9478 23.6406 27.1822 23.651C27.2343 23.651 27.2968 23.6406 27.3436 23.6146C27.6041 23.4687 27.9218 23.5104 28.177 23.3333C28.3853 23.1927 28.6509 23.1354 28.8593 22.9896C29.552 22.5052 30.0728 21.8541 30.4895 21.1354C31.1405 20.0208 31.4634 18.8125 31.5155 17.526C31.5468 16.7656 31.4739 16.0208 31.1301 15.3281C30.9739 15.0208 30.8489 14.6927 30.552 14.4739C30.2603 14.2552 30.0051 14.0104 29.6457 13.8594C29.2499 13.6927 28.8541 13.526 28.4322 13.5C27.9061 13.4635 27.3749 13.5104 26.8489 13.526C26.8072 13.526 26.7603 13.5469 26.7186 13.5677C26.1874 13.8385 25.5624 13.9219 25.1093 14.3437C25.1145 14.3854 25.1145 14.4375 25.1405 14.4844C25.0468 14.4844 24.9895 14.4739 24.9582 14.4583C24.6249 14.6094 24.3541 14.8489 24.078 15.0833C23.8176 15.3021 23.6509 15.5937 23.4218 15.8385C23.2447 16.026 23.1041 16.2344 22.9895 16.4739C22.8489 16.776 22.6614 17.0625 22.4947 17.3541C22.3072 17.6771 22.1041 17.9896 21.9426 18.3229C21.7603 18.6875 21.5624 19.0052 21.1457 19.1771C20.6718 19.375 20.2343 19.6614 19.7655 19.8802C19.4374 20.0364 19.0884 20.1406 18.7186 20.2812C18.7395 20.1458 18.7447 20.0677 18.7603 19.9896C18.9009 19.2448 19.0572 18.5052 19.177 17.7604C19.328 16.8385 19.4478 15.9114 19.5936 14.9896C19.7186 14.1562 19.8697 13.3281 20.0051 12.4948C20.2447 10.9687 20.4895 9.44269 20.7186 7.91144C20.7864 7.44269 20.802 6.96873 20.828 6.49477C20.8436 6.2031 20.7186 5.94269 20.5311 5.72394C20.4686 5.65102 20.3645 5.5729 20.2811 5.5781C19.9166 5.58852 19.5572 5.43748 19.1822 5.54685C18.9843 5.60935 18.7707 5.61977 18.5572 5.6406C17.9634 5.71352 17.4061 5.90623 16.8749 6.18748C16.4791 6.40102 16.2864 6.74477 16.1561 7.12498C15.9166 7.81769 15.8436 8.55206 15.7603 9.27602C15.6301 10.4271 15.5572 11.5833 15.4478 12.7396C15.3905 13.2812 15.302 13.8281 15.2447 14.3698C15.1926 14.8333 15.1666 15.3021 15.1197 15.7656C15.0989 15.9531 15.0468 16.1354 15.0311 16.3177C15.0103 16.5104 15.0207 16.7031 14.9999 16.8906C14.9478 17.3594 14.8905 17.8281 14.828 18.2969C14.7864 18.5885 14.7343 18.8854 14.677 19.2552C13.0103 17.4896 10.927 16.6406 8.70823 16C8.74469 15.3594 8.77073 14.7291 8.81761 14.0989C8.86969 13.3854 8.94781 12.6666 8.99469 11.9479C8.98427 11.9323 8.97386 11.9114 8.96344 11.8958C8.97906 11.8906 8.98948 11.8854 8.9999 11.8802C9.00511 11.8437 9.00511 11.8073 9.01031 11.776C9.01552 11.6875 9.02073 11.6041 9.02594 11.5208C9.02073 11.4948 9.01552 11.4687 9.01031 11.4427C9.02073 11.4427 9.02594 11.4427 9.03636 11.4427C9.04156 11.3646 9.05198 11.2864 9.05719 11.2083C9.01552 11.2135 8.96865 11.2291 8.9374 11.2604C8.91136 11.2239 8.88531 11.1875 8.85406 11.151C8.93219 11.0729 9.00511 10.9896 9.09365 10.901C9.10927 10.7708 9.11969 10.6458 9.13531 10.5156C9.11969 10.526 9.10406 10.5364 9.08844 10.5521C9.11969 10.4219 9.14052 10.3281 9.16656 10.2344C9.19781 9.87498 9.22386 9.51561 9.20302 9.15102C9.19261 8.90102 9.09886 8.74998 8.89573 8.6406C8.83844 8.60415 8.77073 8.58852 8.71865 8.54685C8.34886 8.28644 7.95302 8.14581 7.4999 8.21873C7.38531 8.23956 7.27594 8.2656 7.16656 8.27081C6.4374 8.30727 5.80719 8.56769 5.27594 9.06248C4.9999 9.31248 4.77594 9.60415 4.79677 10.0208C4.81761 10.3698 4.82281 10.7187 4.79677 11.0625C4.7499 11.7552 4.67698 12.4479 4.61969 13.1406C4.60406 13.3385 4.60406 13.5416 4.59365 13.7448C4.57802 14.1562 4.55719 14.5677 4.53636 14.9791C4.54156 14.9791 4.54677 14.9791 4.55198 14.9791C4.55198 15.0104 4.55198 15.0625 4.54156 15.0625H4.53636C4.53115 15.1823 4.52594 15.3021 4.52073 15.4166C4.51552 15.5104 4.53115 15.6041 4.4999 15.6875C4.45823 15.8281 4.4374 15.9479 4.46344 16.0989C4.50511 16.3073 4.38011 16.4948 4.18219 16.5729C3.7551 16.75 3.35927 16.9844 2.97906 17.25C2.66656 17.4635 2.32802 17.6614 2.06761 17.9323C1.70823 18.3021 1.40094 18.7239 1.10406 19.1458C0.729064 19.6771 0.494688 20.2812 0.36448 20.9062C0.348855 21 0.333231 21.0937 0.317605 21.1823C0.359272 21.1823 0.400939 21.1823 0.442605 21.1823C0.442605 21.2187 0.442605 21.25 0.442605 21.2864C0.395731 21.2864 0.348856 21.2864 0.30198 21.2864C0.239482 21.7031 0.218646 22.1198 0.27073 22.5469C0.385313 23.4375 0.630105 24.2708 1.15094 25.026C1.78115 25.9375 2.59365 26.6198 3.56761 27.125C3.80719 27.2448 3.94261 27.5364 3.88011 27.8021C3.86448 27.875 3.84886 27.9531 3.84365 28.0312C3.79677 28.4531 3.76552 28.8802 3.71344 29.3021C3.65615 29.7656 3.5676 30.2291 3.51552 30.6979C3.42177 31.5104 3.32802 32.3281 3.27073 33.1458C3.25511 33.3958 3.29156 33.6875 3.41136 33.8958C3.72386 34.4427 4.23948 34.6823 4.85927 34.6927C5.16656 34.6979 5.45302 34.5989 5.7499 34.5469C6.05198 34.4896 6.32802 34.3906 6.58323 34.2344C6.96865 33.9948 7.23948 33.6719 7.29156 33.1979C7.29677 33.1406 7.30719 33.0833 7.3124 33.0208C7.28636 33.1198 7.22386 33.2031 7.15094 33.2812C7.11448 33.3125 7.02594 33.3385 6.99469 33.3177C6.86969 33.2291 6.9426 33.2291 7.03115 33.25C7.02073 33.1458 7.01031 33.0469 6.9999 32.9375C7.07281 32.8958 7.17698 32.8385 7.27594 32.776C7.29677 32.8125 7.3176 32.8281 7.32281 32.8541C7.32802 32.8698 7.32802 32.8906 7.32802 32.9114C7.33323 32.8489 7.34365 32.7916 7.34886 32.7291C7.42698 32.0156 7.4999 31.2969 7.57281 30.5781C7.57281 30.5625 7.57281 30.5469 7.57802 30.5312C7.56761 30.5156 7.55719 30.5 7.54677 30.4844C7.5624 30.4791 7.57281 30.4739 7.58323 30.4635C7.63531 29.9219 7.68219 29.375 7.73427 28.8281C7.76031 28.526 7.78636 28.2239 7.82281 27.9271C7.84365 27.7656 7.90094 27.625 8.10927 27.6041C8.27594 27.5937 8.44261 27.5573 8.60406 27.5104C9.5624 27.2239 10.5468 27.026 11.4791 26.651C12.0103 26.4375 12.5624 26.276 13.1041 26.0833C13.3436 26 13.5624 25.8489 13.8645 25.8229C13.8541 25.9583 13.8489 26.0625 13.8384 26.1719C13.7551 26.8437 13.677 27.5104 13.5936 28.1823C13.5155 28.875 13.4322 29.5677 13.3489 30.2604C13.3228 30.4791 13.2968 30.6979 13.2655 30.9114C13.328 30.9271 13.3853 30.9375 13.4478 30.9531C13.4426 30.9739 13.4374 31 13.4322 31.026C13.3749 31.0156 13.3176 31.0104 13.2551 31C13.2239 31.2708 13.1926 31.5364 13.1718 31.8073C13.1301 32.3281 13.3749 32.7083 13.8332 32.9635C14.0989 33.1146 14.3593 33.2604 14.677 33.2656C14.7186 33.2656 14.7603 33.2916 14.802 33.3125C15.1509 33.4531 15.5311 33.4166 15.8384 33.2812C16.3436 33.0573 16.6561 32.625 16.7395 32.0677C16.9009 31.0469 17.0572 30.0208 17.2134 29C17.2343 28.8437 17.2655 28.6875 17.2916 28.5312C17.4166 27.6979 17.5416 26.8646 17.6718 26.026C17.7551 25.4844 17.8593 24.9375 17.927 24.3906C17.9582 24.1614 18.0311 24.026 18.2499 23.9323C18.9009 23.651 19.5416 23.3437 20.1822 23.0521C20.3697 22.9687 20.5624 22.8906 20.7655 22.8021C20.8228 22.9583 20.8853 23.0729 20.9061 23.1927C20.9114 23.2291 20.9114 23.2708 20.9061 23.3125C20.9426 23.3229 20.9791 23.3437 21.0155 23.3594C21.0155 23.3854 21.0155 23.4166 21.0155 23.4427C20.9739 23.4479 20.9374 23.4583 20.8957 23.4635C20.8957 23.4896 20.8957 23.5208 20.9009 23.5469C20.9582 23.9479 21.052 24.3437 21.0884 24.7448C21.1353 25.2135 21.3072 25.6458 21.5259 26.0469C21.7707 26.4948 22.0364 26.9375 22.3489 27.3437C22.3593 27.3437 22.3749 27.3437 22.3853 27.3489C22.3801 27.3594 22.3801 27.3698 22.3801 27.3802C22.4895 27.5208 22.6093 27.6614 22.7343 27.7916C23.4114 28.5 24.1405 29.1094 25.0832 29.4427C25.2082 29.4844 25.328 29.5208 25.453 29.5521C25.4895 29.4739 25.5311 29.401 25.5676 29.3281C25.6093 29.3333 25.6457 29.3437 25.6874 29.3541C25.7134 29.4323 25.7447 29.5104 25.7864 29.6198C26.3332 29.7187 26.8905 29.7344 27.453 29.7552C27.802 29.6094 28.1874 29.6406 28.5468 29.4791C29.1614 29.2031 29.7864 28.9635 30.3436 28.5729C31.1614 28.0104 31.8541 27.3281 32.4322 26.5208C32.6145 26.2656 32.7759 25.9948 32.9686 25.75C33.1457 25.5208 33.2291 25.2239 33.5155 25.0416C33.578 25.1198 33.6457 25.1823 33.6926 25.2552C33.7916 25.4271 33.8749 25.6094 33.9791 25.7812C34.1874 26.1146 34.3749 26.4687 34.6197 26.7708C34.8645 27.0729 35.1718 27.3281 35.453 27.5989C35.5728 27.7135 35.703 27.8177 35.8332 27.9219C35.9374 28.0052 36.0364 28.1041 36.1561 28.1562C36.4009 28.2604 36.6561 28.3489 36.8593 28.5364C36.8905 28.5625 36.9374 28.5885 36.9791 28.5989C37.3384 28.6666 37.703 28.7291 38.0676 28.7916C38.1978 28.8125 38.3332 28.8177 38.4686 28.8489C38.8228 28.9323 39.1509 28.8594 39.4582 28.6771C39.4947 28.6562 39.5207 28.6041 39.5468 28.6041C39.8072 28.5989 40.0364 28.4948 40.2499 28.3594C40.8593 27.9739 41.6041 27.8021 42.078 27.2031C42.0884 27.1927 42.0989 27.1927 42.1093 27.1823C42.7499 26.651 43.302 26.026 43.7707 25.3385C44.1666 24.7552 44.4947 24.1302 44.8697 23.4896C44.9322 23.6354 44.9999 23.7708 45.0572 23.9114C45.0832 23.9739 45.0937 24.0416 45.1249 24.0989C45.2603 24.3385 45.3957 24.5833 45.5416 24.8177C45.7291 25.125 45.8957 25.4531 46.1353 25.7135C46.552 26.1666 47.0155 26.5729 47.4582 26.9948C47.4947 27.026 47.5364 27.0469 47.5728 27.0677C47.8697 27.1979 48.1874 27.2812 48.427 27.5208C48.4478 27.5416 48.4895 27.5469 48.5207 27.5573C48.9218 27.6198 49.3176 27.6875 49.7134 27.75C49.802 27.7656 49.8957 27.7656 49.9791 27.7969C50.2916 27.901 50.5832 27.8125 50.8541 27.6875C51.0312 27.6041 51.2134 27.5312 51.4009 27.4844C51.4687 27.4687 51.5416 27.4687 51.5937 27.4323C51.9478 27.1979 52.302 26.9739 52.7134 26.8385C52.9062 26.7708 53.0676 26.6041 53.2343 26.4739C53.3437 26.3906 53.4218 26.2812 53.5312 26.1979C54.2812 25.625 54.8489 24.8854 55.4426 24.0885C55.6353 24.3802 55.8489 24.6146 56.1353 24.7708C56.1562 24.7812 56.177 24.7969 56.1874 24.8125C56.3437 25.0833 56.6197 25.2291 56.8384 25.4375C56.9895 25.5833 57.1718 25.7031 57.3489 25.8177C57.4582 25.8854 57.5937 25.9166 57.7082 25.9687C57.8801 26.0521 58.0416 26.1666 58.2187 26.2135C58.2759 26.2344 58.3384 26.2448 58.3957 26.2604C58.4374 26.2552 58.4791 26.2448 58.5207 26.2344C58.5259 26.2552 58.5259 26.276 58.5312 26.2916C58.953 26.3854 59.3749 26.4427 59.8228 26.4166C60.3541 26.3854 60.8436 26.2708 61.3228 26.0729C61.4582 26.0208 61.5832 25.9479 61.7082 25.875C62.2812 25.5625 62.828 25.2187 63.2812 24.7396C63.7343 24.2552 64.1509 23.7344 64.4687 23.151C64.7343 22.6719 64.927 22.151 65.1457 21.6458C65.1978 21.5156 65.2239 21.3698 65.2707 21.2344C65.3228 21.0781 65.4009 20.9271 65.4426 20.7656C65.5364 20.375 65.6405 19.9791 65.6978 19.5833C65.7916 18.9844 65.8957 18.3802 65.9218 17.7708C65.9687 16.6406 65.7812 15.526 65.5051 14.4323ZM55.8697 4.6979C55.8332 4.78644 55.7968 4.87498 55.7603 4.96873C55.6301 4.83331 55.6301 4.83331 55.8697 4.6979ZM55.5572 5.36977C55.6509 5.36977 55.7447 5.36977 55.8384 5.36977C55.8332 5.40623 55.8228 5.44269 55.8176 5.47915C55.7291 5.46873 55.6405 5.45831 55.552 5.4479C55.552 5.42185 55.5572 5.39581 55.5572 5.36977ZM55.1093 11.0833C55.1197 11.1458 55.1301 11.2135 55.1353 11.2812C55.1145 11.2812 55.0676 11.2812 55.0676 11.276C55.0572 11.2135 55.052 11.151 55.0416 11.0885C55.0624 11.0885 55.0884 11.0833 55.1093 11.0833ZM50.177 17.8594C50.2187 17.7916 50.2499 17.6979 50.3124 17.6719C50.4062 17.625 50.4166 17.6875 50.3124 17.8125C50.2864 17.8437 50.2603 17.875 50.2395 17.901C50.2186 17.8854 50.1978 17.875 50.177 17.8594ZM50.4009 19.1666C50.3645 19.0989 50.328 19.026 50.2916 18.9531C50.3124 18.9375 50.3384 18.9271 50.3593 18.9114C50.4009 18.9844 50.4426 19.0521 50.4843 19.125C50.4582 19.1406 50.4322 19.1562 50.4009 19.1666ZM50.5572 19.151C50.5468 18.9739 50.5416 18.8437 50.5259 18.6562C50.6509 18.8698 50.6509 18.8698 50.5572 19.151ZM51.5312 17.2344C51.6509 17.1406 51.7499 17.0625 51.8541 16.9791C51.9114 17.2656 51.8541 17.3177 51.5312 17.2344ZM51.9009 15.3541C51.9114 15.3021 51.9218 15.25 51.9322 15.2031C51.9686 15.2135 51.9999 15.2291 52.0364 15.2396C52.0155 15.2864 51.9947 15.3281 51.9739 15.375C51.9478 15.3646 51.927 15.3594 51.9009 15.3541ZM52.0989 16.8594C51.953 16.6875 51.9895 16.5937 52.1978 16.5521C52.1666 16.6406 52.1405 16.7291 52.0989 16.8594ZM52.2968 16.3021C52.2707 16.2864 52.2499 16.276 52.2239 16.2604C52.2499 16.1927 52.2812 16.125 52.3072 16.0521C52.3332 16.0625 52.3593 16.0729 52.3801 16.0833C52.3541 16.1562 52.3228 16.2291 52.2968 16.3021ZM52.9687 14.3958C52.953 14.401 52.9062 14.3698 52.9062 14.3594C52.9166 14.3281 52.9374 14.2969 52.9634 14.25C53.0051 14.2864 53.0312 14.3125 53.0572 14.3333C53.0312 14.3594 53.0051 14.3854 52.9687 14.3958ZM53.7812 13.3281C53.7812 13.3021 53.7812 13.276 53.7812 13.2552C53.8749 13.2552 53.9634 13.2552 54.052 13.2552C54.0572 13.276 54.0624 13.3021 54.0624 13.3281C53.9687 13.3281 53.8749 13.3281 53.7812 13.3281ZM53.8384 11.4479C53.8124 11.2135 53.8124 11.2135 54.0989 11.1979C53.9686 11.3177 53.9114 11.375 53.8384 11.4479ZM54.6718 5.02602C54.6457 5.01561 54.6145 5.0104 54.5884 4.99998C54.578 4.92706 54.5624 4.85415 54.5416 4.73956C54.6145 4.75519 54.677 4.76561 54.7343 4.77602C54.7134 4.85935 54.6926 4.94269 54.6718 5.02602ZM54.7499 4.43227C54.4166 4.59894 54.4166 4.59894 54.2551 4.31248C54.427 4.28123 54.6249 4.0729 54.7499 4.43227ZM54.4322 3.47394C54.4999 3.7656 54.302 3.74477 54.1353 3.80206C54.0728 3.51561 54.2447 3.50519 54.4322 3.47394ZM54.0676 4.0729C54.0937 4.06769 54.1197 4.11977 54.1509 4.14581C54.1197 4.17706 54.0936 4.21873 54.0572 4.22915C54.0364 4.23956 53.9999 4.19269 53.9582 4.16144C54.0051 4.11977 54.0312 4.0729 54.0676 4.0729ZM52.2291 1.5729C52.2707 1.71352 52.2916 1.79685 52.3176 1.89581C52.2187 1.90102 52.1509 1.91144 52.0259 1.92185C52.0989 1.79685 52.1457 1.71352 52.2291 1.5729ZM51.5624 3.65102C51.6666 3.66144 51.7655 3.67706 51.8697 3.68748C51.8645 3.70831 51.8645 3.72915 51.8593 3.74998C51.7603 3.72394 51.6614 3.6979 51.5572 3.67185C51.5624 3.66665 51.5624 3.65623 51.5624 3.65102ZM51.5832 3.9479C51.5832 3.98435 51.5937 4.02081 51.5832 4.03123C51.4634 4.1406 51.3489 4.20831 51.2187 3.98435C51.3593 3.96873 51.4687 3.95831 51.5832 3.9479ZM50.8905 5.28644C50.9218 5.29685 50.953 5.30727 50.9843 5.31769C50.953 5.40102 50.927 5.48435 50.8957 5.56769C50.8489 5.55206 50.802 5.53123 50.7551 5.5104C50.802 5.43748 50.8436 5.35935 50.8905 5.28644ZM50.3384 3.62498C50.1249 3.68227 50.1249 3.68227 50.1197 3.49477C50.1926 3.53644 50.2603 3.57811 50.3384 3.62498ZM48.4322 10.8125C48.4478 10.7656 48.4999 10.7291 48.5364 10.6927C48.552 10.6979 48.5624 10.7083 48.578 10.7135C48.5416 10.7969 48.5051 10.8854 48.4687 10.9687C48.4582 10.9687 48.4426 10.9687 48.427 10.9687C48.427 10.9166 48.4114 10.8594 48.4322 10.8125ZM48.1978 13.9635C48.2812 13.4531 48.427 12.9687 48.6145 12.4896C48.6353 12.4271 48.6301 12.3541 48.6405 12.2916C48.6822 12.0156 48.7343 11.7448 48.8697 11.4896C48.9478 11.3541 48.953 11.1719 48.9791 11.0104C49.0103 10.8125 49.0155 10.6094 49.2343 10.5C49.1666 10.1875 49.2968 9.90102 49.4114 9.63019C49.7395 8.8229 50.1041 8.03123 50.453 7.23435C50.5676 6.97915 50.6718 6.71873 50.7916 6.46352C50.9582 6.09373 51.1666 5.75519 51.3905 5.42185C51.3905 5.40102 51.3905 5.38019 51.3905 5.35935C51.4062 5.35935 51.4218 5.35935 51.4374 5.35935C51.5884 5.14061 51.7447 4.92185 51.9062 4.70831C52.052 4.5104 52.2291 4.37498 52.4374 4.3281C52.4582 4.3229 52.4739 4.31248 52.4947 4.30727C52.4947 4.31248 52.4999 4.31769 52.4999 4.3229C52.6041 4.30727 52.7187 4.31248 52.8437 4.33852C53.0207 4.3854 53.1614 4.43227 53.2187 4.62498C53.2343 4.67706 53.2707 4.72915 53.3124 4.7656C53.5832 4.99998 53.6197 5.3229 53.6614 5.65102C53.6666 5.70831 53.677 5.7656 53.6874 5.8281C53.7864 5.70831 53.8541 5.61977 53.9218 5.53123C53.9582 5.55206 53.9999 5.56248 53.9999 5.5781C54.0312 5.78123 53.9582 5.8906 53.6926 5.8281C53.7187 5.96873 53.7551 6.10415 53.7603 6.23956C53.7759 6.41665 53.7343 6.59894 53.7239 6.77602C53.7186 6.9479 53.7134 7.11977 53.703 7.29165C53.7134 7.2656 53.7291 7.24998 53.7343 7.24998C53.7968 7.2604 53.8593 7.29165 53.9791 7.33331C53.8853 7.40102 53.8384 7.4531 53.802 7.4479C53.7603 7.44269 53.7239 7.40102 53.6978 7.36456C53.6718 7.83852 53.6197 8.31248 53.4843 8.77602C53.4218 8.97915 53.3489 9.18227 53.2812 9.3854C53.2603 9.4479 53.2187 9.5104 53.2134 9.5729C53.203 9.9479 53.0728 10.2969 52.9895 10.6562C52.9062 11.0364 52.7603 11.4062 52.6301 11.776C52.5572 11.9844 52.3228 12.1458 52.4166 12.4114C52.4218 12.4219 52.4114 12.4375 52.4062 12.4427C52.1197 12.6094 52.1301 12.9687 51.8905 13.1771C51.9322 13.2396 51.9687 13.2916 51.9791 13.3021C51.8072 13.6198 51.6405 13.9114 51.4843 14.2083C51.4009 14.3646 51.3541 14.5364 51.2707 14.6979C51.2499 14.7396 51.2239 14.7864 51.203 14.8333C51.2082 14.8229 51.2187 14.8125 51.2291 14.8021C51.2655 14.8646 51.3124 14.9166 51.3072 14.9271C51.2759 14.9739 51.2239 15.0052 51.1822 15.0416C51.1666 15.0156 51.1405 14.9948 51.1301 14.9739C51.0364 15.1458 50.9426 15.3177 50.8384 15.4844C50.7759 15.5937 50.6509 15.6666 50.5728 15.776C50.4218 15.9844 50.302 16.2135 50.1353 16.4114C49.9478 16.6406 49.7291 16.8489 49.5155 17.0573C49.2082 17.3646 48.8957 17.6719 48.578 17.9635C48.4374 18.0885 48.2812 18.2083 48.1145 18.2708C47.9791 18.3229 47.9322 18.5469 47.7291 18.4635C47.7239 18.4635 47.6509 18.6198 47.552 18.6875C47.5416 18.6302 47.5103 18.5677 47.5207 18.5104C47.5676 18.2396 47.5103 17.9531 47.6197 17.6823C47.6666 17.5677 47.6457 17.4219 47.6509 17.2864C47.6562 16.7812 47.7707 16.2916 47.8489 15.7969C47.9426 15.1823 48.0936 14.5729 48.1978 13.9635ZM47.7447 12.9219C47.7603 12.9531 47.7759 12.9844 47.7916 13.0156C47.7134 13.0416 47.6353 13.0677 47.5624 13.0937C47.552 13.0781 47.5416 13.0625 47.5364 13.0469C47.6041 13.0052 47.677 12.9635 47.7447 12.9219ZM47.7499 13.5937C47.6197 13.4896 47.5416 13.4323 47.4582 13.3698C47.703 13.1875 47.703 13.1875 47.7499 13.5937ZM43.802 3.88019C43.8593 4.03123 43.8957 4.11977 43.9374 4.23435C43.7395 4.1354 43.7395 4.1354 43.802 3.88019ZM26.0676 21.6927C26.0103 21.651 25.953 21.6041 25.8905 21.5573C25.9061 21.5364 25.9218 21.5156 25.9374 21.5C25.9999 21.5364 26.0624 21.5781 26.1197 21.6198C26.1041 21.6458 26.0832 21.6719 26.0676 21.6927ZM26.2186 22.1666C26.3384 22.0573 26.4426 21.9583 26.5936 21.8177C26.5207 22.1875 26.5103 22.1979 26.2186 22.1666ZM27.1457 21.2656C27.0051 21.2239 26.9739 21.1406 27.0728 20.9687C27.1405 21.0625 27.1978 21.1354 27.2551 21.2135C27.1926 21.2448 27.1666 21.2708 27.1457 21.2656ZM28.9218 22.1771C28.8957 22.1666 28.8697 22.1562 28.8436 22.1406C28.8801 22.0625 28.9166 21.9791 28.953 21.901C28.9791 21.9114 29.0103 21.9271 29.0364 21.9375C28.9999 22.0156 28.9634 22.0989 28.9218 22.1771ZM30.4322 19.4687C30.4634 19.4739 30.4999 19.4739 30.5311 19.4739C30.5259 19.5729 30.5155 19.6719 30.5051 19.7708C30.4791 19.7708 30.453 19.7708 30.4322 19.7708C30.4322 19.6719 30.4322 19.5677 30.4322 19.4687ZM30.3957 19.0989C30.3957 19.125 30.3957 19.151 30.3905 19.1771C30.3072 19.1771 30.2239 19.1771 30.1457 19.1771C30.1405 19.1562 30.1405 19.1406 30.1405 19.1198C30.2239 19.1146 30.3124 19.1041 30.3957 19.0989ZM29.6874 16.4739C29.5259 16.5781 29.4061 16.6562 29.2811 16.7344C29.3697 16.6041 29.3957 16.3802 29.6874 16.4739ZM29.0676 13.7135C28.9791 13.7864 28.8905 13.8594 28.7655 13.9687C28.7551 13.6927 28.9114 13.7031 29.0676 13.7135ZM26.5572 14.625C26.4374 14.5312 26.3645 14.4739 26.2707 14.3958C26.4582 14.3541 26.5624 14.3802 26.5572 14.625ZM24.7968 14.9791C24.7707 14.8489 24.7447 14.7187 24.7186 14.5885C24.8697 14.7396 24.8697 14.7396 24.7968 14.9791ZM24.5989 19.4948C24.8489 18.9791 25.0936 18.4583 25.3645 17.9531C25.7707 17.2031 26.4009 16.651 27.0624 16.1406C27.1874 16.0416 27.3645 16 27.5259 15.9531C27.6301 15.9166 27.7499 15.9323 27.8593 15.901C28.2551 15.8073 28.5416 15.9948 28.7655 16.2812C28.9895 16.5781 29.1041 16.9323 29.1353 17.3646C29.0103 17.6666 29.0624 18.0521 28.9322 18.4219C28.7447 18.9479 28.4843 19.4219 28.1353 19.8541C27.6718 20.4219 27.0989 20.8177 26.3853 20.9844C25.7968 21.125 25.3072 20.9114 24.9218 20.4948C24.7447 20.3125 24.6666 20.0312 24.5676 19.7864C24.5364 19.7031 24.5572 19.5781 24.5989 19.4948ZM24.2343 15.2344C24.2864 15.2864 24.3384 15.3333 24.3957 15.3854C24.2239 15.5208 24.2134 15.375 24.2343 15.2344ZM20.7343 6.43227C20.6301 6.56248 20.5624 6.64581 20.4895 6.72915C20.4478 6.68748 20.4114 6.66665 20.4166 6.65102C20.4322 6.52081 20.4634 6.3906 20.7343 6.43227ZM20.2447 7.19269C20.2707 7.21873 20.2603 7.27602 20.2759 7.3906C20.2082 7.28644 20.1718 7.22915 20.1197 7.15623C20.1614 7.16665 20.2186 7.16665 20.2447 7.19269ZM20.2395 8.15623C20.2916 8.24477 20.3541 8.30727 20.3489 8.35935C20.3384 8.40623 20.2551 8.44269 20.2082 8.47915C20.1718 8.43227 20.0989 8.3854 20.1041 8.33852C20.1093 8.28644 20.1718 8.23435 20.2395 8.15623ZM3.53115 33.8489C3.6926 33.6771 3.76031 33.7239 3.83844 34.0104C3.68219 33.9271 3.61448 33.8958 3.53115 33.8489ZM4.43219 17.2344C4.4374 17.2969 4.44781 17.3541 4.44781 17.4114C4.44781 17.4166 4.38011 17.4323 4.38011 17.4271C4.35927 17.3698 4.34365 17.3073 4.32802 17.2448C4.36448 17.2448 4.40094 17.2396 4.43219 17.2344ZM2.90615 22.3489C2.90615 22.3489 2.85927 22.2864 2.83323 22.25C2.91656 22.1979 2.99469 22.1406 3.07281 22.0833C3.09886 22.1146 3.11969 22.151 3.14573 22.1823C3.06761 22.2396 2.98948 22.2969 2.90615 22.3489ZM3.46865 18.8229C3.57802 18.9479 3.67698 19.0521 3.79677 19.1823C3.69261 19.25 3.63531 19.2916 3.54677 19.3541C3.55198 19.2396 3.55198 19.1666 3.55719 19.0677C3.46865 19.0677 3.39052 19.0677 3.24469 19.0677C3.33323 18.9687 3.38531 18.9114 3.46865 18.8229ZM4.21344 20.4844C4.21344 21.4427 4.23427 22.3854 4.04677 23.3698C3.09365 22.5469 3.3749 20.8229 4.21344 20.4844ZM4.26552 31.1146C4.21865 31.1094 4.18219 31.0573 4.09365 30.9896C4.19782 30.9583 4.2499 30.9271 4.28115 30.9427C4.32281 30.9531 4.35406 31.0104 4.38531 31.0469C4.34365 31.0677 4.30198 31.1146 4.26552 31.1146ZM4.39573 21.151C4.27594 21.0104 4.27594 21.0104 4.47906 20.9271C4.45302 21 4.42698 21.0729 4.39573 21.151ZM7.17177 10.5469C7.03115 10.7291 6.94261 10.6614 6.79677 10.5469C6.94781 10.5469 7.03636 10.5469 7.17177 10.5469ZM6.71865 8.5781C6.74469 8.60935 6.77073 8.64581 6.79677 8.67706C6.77594 8.69269 6.74469 8.72915 6.73948 8.72394C6.70823 8.70831 6.67177 8.68227 6.66136 8.65623C6.65615 8.6354 6.69782 8.60415 6.71865 8.5781ZM6.76552 15.5416C6.80198 15.5625 6.83844 15.5833 6.8749 15.6041C6.82802 15.6771 6.78115 15.75 6.73948 15.8229C6.70823 15.8073 6.68219 15.7969 6.65615 15.7812C6.6926 15.6979 6.72906 15.6198 6.76552 15.5416ZM6.17698 9.34373C6.3749 9.5729 6.3749 9.5729 6.11448 9.8281C6.14052 9.60935 6.15615 9.49477 6.17698 9.34373ZM5.72386 21C5.76031 21.0312 5.79677 21.0625 5.84365 21.1094C5.79156 21.151 5.76031 21.1719 5.73427 21.1927C5.71344 21.1614 5.67698 21.1354 5.67177 21.0989C5.67177 21.0677 5.70302 21.0312 5.72386 21ZM5.66656 12.8333C5.44261 12.8698 5.44261 12.8698 5.42698 12.6302C5.51552 12.7031 5.58323 12.7604 5.66656 12.8333ZM5.07281 12.2396C5.10406 12.2448 5.13011 12.25 5.16136 12.2604C5.15615 12.3281 5.15094 12.3958 5.13531 12.4635C5.13011 12.4687 5.0624 12.4635 5.02073 12.4635C5.04156 12.3854 5.05719 12.3125 5.07281 12.2396ZM4.98427 26.2239C5.04677 26.2604 5.10927 26.2969 5.17177 26.3281C5.15615 26.3594 5.13531 26.3906 5.11448 26.4166C5.05719 26.3802 4.9999 26.3385 4.94261 26.2969C4.95823 26.2708 4.96865 26.25 4.98427 26.2239ZM4.77073 27.7916C5.05198 27.8229 5.00511 28 4.92698 28.1614C4.88011 28.0469 4.82802 27.9323 4.77073 27.7916ZM4.90615 30.4844C4.91136 30.4687 4.95823 30.4479 4.97906 30.4531C5.15094 30.5052 5.09886 30.6354 5.11448 30.776C4.9374 30.7135 4.84365 30.6458 4.90615 30.4844ZM5.14052 34.2135C5.11969 34.1979 5.09886 34.1823 5.08323 34.1666C5.11969 34.1094 5.16136 34.0521 5.20302 33.9948C5.22906 34.0208 5.2551 34.0416 5.28115 34.0625C5.23427 34.1146 5.1874 34.1666 5.14052 34.2135ZM5.11448 23.4791C5.09886 23.4375 5.08323 23.3958 5.07281 23.3594C5.13531 23.3333 5.20302 23.3125 5.27073 23.2916C5.27594 23.3177 5.28636 23.3385 5.29677 23.3646C5.23427 23.401 5.17698 23.4427 5.11448 23.4791ZM5.51552 21.6771C5.59365 21.7291 5.66656 21.7916 5.73948 21.8541C5.71865 21.875 5.70302 21.901 5.68219 21.9271C5.59886 21.8802 5.51031 21.8281 5.40094 21.7708C5.45823 21.7187 5.51031 21.6666 5.51552 21.6771ZM5.57802 25.2552C5.7499 25.3541 5.86448 25.4479 5.76552 25.6562C5.46865 25.6406 5.46865 25.4948 5.57802 25.2552ZM5.59365 30.0052C5.61969 29.8541 5.63531 29.7448 5.65094 29.6354C5.6874 29.6302 5.72386 29.625 5.76031 29.625C5.8124 29.7135 5.86448 29.8073 5.9374 29.9323C5.81761 29.9583 5.73948 29.9739 5.59365 30.0052ZM5.83323 9.72915C5.79677 9.64581 5.76552 9.56769 5.73427 9.48435C5.75511 9.46873 5.77594 9.45831 5.79677 9.44269C5.84365 9.51561 5.89052 9.58331 5.9374 9.65623C5.90094 9.67706 5.86969 9.7031 5.83323 9.72915ZM6.11448 34.2656C6.11448 34.2708 6.06761 34.2552 6.04156 34.2448C6.0624 34.1875 6.08323 34.1354 6.10406 34.0781C6.13011 34.0833 6.15094 34.0937 6.17177 34.0989C6.15615 34.1562 6.13531 34.2135 6.11448 34.2656ZM6.13011 33.2396C6.30719 33.1406 6.30719 33.1406 6.36969 33.4635C6.25511 33.3541 6.19261 33.2969 6.13011 33.2396ZM6.28636 24.2239C6.21865 24.1771 6.15615 24.1198 6.08844 24.0625C6.10406 24.0416 6.1249 24.0208 6.14052 24C6.21865 24.0573 6.29677 24.1146 6.39052 24.1927C6.34886 24.2083 6.30198 24.2344 6.28636 24.2239ZM6.35927 16.2969C6.45823 16.1823 6.53115 16.1146 6.6874 16.3281C6.52594 16.3125 6.45302 16.3073 6.35927 16.2969ZM6.86969 31.2864C6.78115 31.1198 6.73427 31.0208 6.68219 30.9271C6.73427 30.9062 6.79677 30.8594 6.83323 30.875C6.96344 30.9375 7.02594 31.0364 6.86969 31.2864ZM7.05719 30.6354C6.98948 30.5312 6.92177 30.4271 6.83844 30.2916C6.88011 30.2552 6.94261 30.2031 7.04156 30.1146C7.09365 30.2969 7.13011 30.4323 7.17177 30.5677C7.13011 30.5885 7.09365 30.6146 7.05719 30.6354ZM7.05719 22.4375C7.04677 22.4271 7.03636 22.4114 7.02594 22.401C7.13011 22.3021 7.22906 22.2083 7.33323 22.1094C7.33323 22.1146 7.33844 22.1198 7.34365 22.1198C7.24469 22.2239 7.15094 22.3333 7.05719 22.4375ZM7.49469 13.0781C7.47386 13.0781 7.44781 13.0729 7.42177 13.0677C7.4374 12.9844 7.45302 12.9062 7.46865 12.8229C7.49469 12.8281 7.51552 12.8333 7.54156 12.8385C7.52594 12.9166 7.51031 13 7.49469 13.0781ZM11.1874 18.2812C11.2395 18.3698 11.2968 18.4583 11.3489 18.5469C11.3228 18.5573 11.2968 18.5677 11.2707 18.5781C11.2239 18.4896 11.177 18.4062 11.1301 18.3177C11.1509 18.3073 11.1666 18.2916 11.1874 18.2812ZM9.30198 17.7552C9.35927 17.8125 9.41136 17.8698 9.46865 17.9271C9.41136 17.9583 9.35927 17.9896 9.26552 18.0469C9.25511 17.9375 9.24469 17.8646 9.23948 17.7969C9.26031 17.7812 9.28115 17.7656 9.30198 17.7552ZM9.13531 19.0625C9.16656 19.1614 9.19781 19.2656 9.22906 19.3698C9.16136 19.3854 9.10927 19.3958 9.10927 19.3906C9.08323 19.2916 9.0624 19.1927 9.04156 19.0885C9.07281 19.0781 9.10406 19.0729 9.13531 19.0625ZM8.22906 12.0729C8.28636 12.1198 8.34365 12.1719 8.40094 12.2239C8.39052 12.2448 8.3749 12.2656 8.35927 12.2864C8.29156 12.25 8.22386 12.2083 8.15615 12.1719C8.18219 12.1406 8.20823 12.1041 8.22906 12.0729ZM8.56761 17.3385C8.55719 17.3437 8.54677 17.3541 8.53115 17.3646C8.27594 17.3229 8.20823 17.1719 8.26031 16.9583C8.35927 17.0833 8.46344 17.2083 8.56761 17.3385ZM7.57802 18.3698C7.58323 18.2239 7.59365 18.125 7.59886 17.9948C7.77594 18.1562 7.77594 18.1562 7.57802 18.3698ZM7.76552 10.0416C7.73948 10.0104 7.70823 9.97915 7.68219 9.9479C7.72906 9.8906 7.77594 9.83852 7.81761 9.78644C7.84886 9.81769 7.8801 9.84373 7.90615 9.87498C7.85927 9.92706 7.8124 9.98435 7.76552 10.0416ZM7.90094 13.3437C7.90094 13.3333 7.90094 13.3177 7.90094 13.3073C7.99469 13.3073 8.08844 13.3073 8.17698 13.3073C8.18219 13.3177 8.1874 13.3229 8.19261 13.3281C8.09365 13.3333 7.9999 13.3385 7.90094 13.3437ZM11.8332 24.2083C11.802 24.2031 11.7707 24.1979 11.7343 24.1927C11.7447 24.0729 11.6145 23.901 11.9218 23.8333C11.8853 23.9844 11.8593 24.0937 11.8332 24.2083ZM8.11969 24.1927C8.23948 22.7604 8.24469 21.3698 8.46344 19.9427C8.6874 20.0156 8.88531 20.0729 9.08323 20.151C9.59365 20.3489 10.1145 20.5312 10.6093 20.7656C11.4478 21.1614 12.1145 21.776 12.6822 22.5104C12.7082 22.5416 12.7239 22.5885 12.7551 22.6562C11.2186 23.2291 9.77073 23.9427 8.11969 24.1927ZM13.552 22.7864C13.552 22.7552 13.5416 22.7239 13.552 22.7031C13.5624 22.6875 13.5989 22.6875 13.6249 22.6823C13.6353 22.7083 13.6457 22.7344 13.6509 22.7552C13.6197 22.7656 13.5832 22.776 13.552 22.7864ZM14.8124 28.6302C14.7082 28.7135 14.6666 28.6927 14.5832 28.5781C14.4634 28.4062 14.6197 28.3906 14.6718 28.3073C14.7186 28.4166 14.7655 28.5208 14.8124 28.6302ZM14.6666 24.8333C14.6457 24.8437 14.6249 24.8541 14.5989 24.8646C14.5572 24.7916 14.5103 24.7187 14.4686 24.6458C14.4999 24.6302 14.5364 24.6146 14.5676 24.5989C14.5989 24.6771 14.6301 24.7552 14.6666 24.8333ZM14.4947 21.9166C14.3489 21.8646 14.2655 21.8333 14.1041 21.7708C14.3176 21.6875 14.4426 21.6406 14.4947 21.9166ZM13.8801 31.3802C13.8489 31.3646 13.8176 31.3541 13.7811 31.3385C13.8072 31.2812 13.828 31.2239 13.8489 31.1614C13.8749 31.1771 13.9218 31.1927 13.9218 31.1979C13.9114 31.2604 13.8957 31.3177 13.8801 31.3802ZM14.1457 29.3802C14.0728 29.1979 14.0259 29.0781 13.9686 28.9375C14.2082 29.0156 14.2082 29.0156 14.1457 29.3802ZM14.2082 25.7552C14.1718 25.8177 14.1145 25.8698 14.0624 25.9271C14.0155 25.8646 13.9634 25.8021 13.8749 25.6979C14.0207 25.6666 14.0936 25.651 14.1718 25.6354C14.1874 25.6771 14.2239 25.7291 14.2082 25.7552ZM14.5103 25.9219C14.5311 25.9323 14.552 25.9427 14.5728 25.9583C14.5364 26.0312 14.4947 26.1094 14.4582 26.1875C14.4374 26.1666 14.4114 26.1458 14.3905 26.125C14.427 26.0573 14.4686 25.9896 14.5103 25.9219ZM14.4322 31.2344C14.4634 31.2239 14.4895 31.2135 14.5207 31.2031C14.552 31.2864 14.578 31.375 14.6093 31.4635C14.5832 31.4739 14.5624 31.4844 14.5364 31.4948C14.4999 31.4062 14.4686 31.3229 14.4322 31.2344ZM14.8853 32.6354C14.7916 32.5521 14.6978 32.4739 14.5832 32.3698C14.6405 32.3177 14.6822 32.2708 14.7811 32.1666C14.8489 32.3385 14.9009 32.4687 14.953 32.5989C14.9322 32.6094 14.9061 32.6198 14.8853 32.6354ZM15.0572 31.5364C15.0051 31.5 14.9582 31.4635 14.9114 31.4271C14.927 31.4062 14.9426 31.3854 14.9582 31.3594C14.9999 31.3958 15.0468 31.4271 15.0884 31.4635C15.0936 31.4739 15.0676 31.5104 15.0572 31.5364ZM15.8489 31.3594C15.7551 31.4844 15.6353 31.5885 15.5416 31.6875C15.4739 31.5052 15.4166 31.3489 15.3489 31.1771C15.4322 31.25 15.5051 31.3125 15.5989 31.3958C15.6509 31.3125 15.703 31.2344 15.7759 31.1094C15.8124 31.2187 15.8749 31.3229 15.8489 31.3594ZM15.8905 24.2239C15.7707 24.2239 15.677 24.2239 15.552 24.2239C15.6041 24.0573 15.6457 23.9271 15.6926 23.776C15.9739 23.8385 15.927 24.026 15.8905 24.2239ZM16.2551 23.7708C16.2811 23.7812 16.3124 23.7916 16.3384 23.8021C16.2968 23.9114 16.2551 24.0208 16.1874 24.1823C16.0676 23.9583 16.2291 23.8854 16.2551 23.7708ZM16.3176 31.7812C16.3176 31.4948 16.3176 31.2708 16.3176 31.0469C16.3593 31.0469 16.3957 31.0521 16.4374 31.0521C16.4009 31.276 16.3645 31.4948 16.3176 31.7812ZM16.3801 14.401C16.3593 14.375 16.3436 14.3437 16.3332 14.3125C16.3593 14.3073 16.3905 14.2916 16.4061 14.3021C16.427 14.3125 16.4322 14.3437 16.4478 14.3698C16.4218 14.3802 16.3853 14.4062 16.3801 14.401ZM16.6874 8.6979C16.5989 8.67706 16.5051 8.66144 16.4166 8.64581C16.4218 8.61456 16.427 8.58331 16.427 8.54685C16.5207 8.55727 16.6145 8.56248 16.7082 8.5729C16.703 8.61456 16.6926 8.65623 16.6874 8.6979ZM16.9478 8.69269C16.9322 8.56248 16.9218 8.47915 16.9061 8.36456C17.0468 8.46352 17.1197 8.53644 16.9478 8.69269ZM16.8697 26.276C16.8645 26.2552 16.8541 26.2291 16.8436 26.2083C16.9114 26.1823 16.9843 26.1562 17.052 26.125C17.0572 26.1562 17.0676 26.1823 17.078 26.2083C17.0051 26.2291 16.9374 26.2552 16.8697 26.276ZM17.0259 10.25C16.9895 10.1771 16.953 10.0989 16.9166 10.026C16.9374 10.0156 16.9634 9.99998 16.9843 9.98956C17.0259 10.0625 17.0624 10.1354 17.0989 10.2083C17.0728 10.2239 17.052 10.2344 17.0259 10.25ZM17.2082 26.8073C17.203 26.7864 17.1978 26.7656 17.1926 26.7448C17.2603 26.7239 17.3332 26.7083 17.4061 26.6875C17.4114 26.7187 17.4166 26.75 17.4218 26.7812C17.3541 26.7916 17.2811 26.8021 17.2082 26.8073ZM17.7864 13.0208C17.7655 13.0156 17.7447 13.0052 17.7239 13C17.7395 12.9427 17.7551 12.8854 17.7655 12.8333C17.802 12.8489 17.8384 12.8594 17.8749 12.875C17.8436 12.9271 17.8176 12.9739 17.7864 13.0208ZM17.7655 10.8281C17.7551 10.8073 17.7447 10.7864 17.7291 10.7708C17.7759 10.7396 17.8228 10.7083 17.8697 10.6823C17.8801 10.6823 17.9061 10.7239 17.9218 10.7448C17.8697 10.7708 17.8176 10.8021 17.7655 10.8281ZM19.4739 11.2031C19.5207 11.276 19.552 11.3177 19.578 11.3594C19.5468 11.3802 19.5103 11.4219 19.4843 11.4166C19.453 11.4114 19.4114 11.3646 19.4061 11.3333C19.4009 11.3073 19.4374 11.2708 19.4739 11.2031ZM19.3593 16.5416C19.2447 16.6614 19.1197 16.8281 18.9686 16.5416C19.1249 16.5416 19.2395 16.5416 19.3593 16.5416ZM18.7447 5.71873C18.7603 5.74477 18.7811 5.77602 18.802 5.80727C18.7343 5.84894 18.6666 5.8854 18.6041 5.92706C18.5884 5.90102 18.5728 5.88019 18.5572 5.85415C18.6197 5.80727 18.6822 5.7604 18.7447 5.71873ZM18.2811 12.5208C18.3176 12.5885 18.3489 12.6562 18.3801 12.7291C18.3801 12.7344 18.3072 12.7604 18.2707 12.7812C18.2447 12.7135 18.2134 12.6406 18.1874 12.5677C18.2186 12.5521 18.2499 12.5364 18.2811 12.5208ZM18.2186 23.2448C18.2082 23.2239 18.203 23.1979 18.1978 23.1771C18.2499 23.1614 18.302 23.1458 18.3541 23.1302C18.3593 23.151 18.3697 23.1771 18.3749 23.1979C18.3228 23.2135 18.2707 23.2291 18.2186 23.2448ZM18.2603 20.4166C18.3905 20.3385 18.4634 20.2916 18.552 20.2396C18.578 20.3125 18.6145 20.3958 18.6614 20.5208C18.5259 20.4844 18.4426 20.4635 18.2603 20.4166ZM19.0155 22.4323C18.9947 22.4323 18.9686 22.4323 18.9478 22.4323C18.9322 22.3698 18.9114 22.3125 18.8957 22.25C18.8905 22.25 18.8853 22.25 18.8749 22.2552C18.8697 22.2448 18.8593 22.2344 18.8541 22.2239C18.8124 22.2344 18.7759 22.2396 18.7343 22.2448C18.7447 22.1979 18.7499 22.151 18.7551 22.0989C18.7916 22.1406 18.8228 22.1823 18.8541 22.2239C18.8645 22.2239 18.8749 22.2239 18.8853 22.2187C18.8905 22.2291 18.8905 22.2396 18.8957 22.25C18.9478 22.2448 18.9999 22.2344 19.052 22.2291C19.0416 22.2969 19.0259 22.3646 19.0155 22.4323ZM20.0884 21.0364C20.0728 21.0364 20.0572 21.0312 20.0416 21.0312C20.0572 20.9479 20.0728 20.8646 20.0832 20.7812C20.1093 20.7864 20.1353 20.7916 20.1614 20.7969C20.1405 20.875 20.1145 20.9583 20.0884 21.0364ZM20.953 22.0989C20.8853 22.0625 20.8176 22.026 20.7551 21.9948C20.7655 21.9687 20.7811 21.9427 20.7968 21.9219C20.8593 21.9635 20.9218 22 20.9843 22.0416C20.9739 22.0625 20.9634 22.0781 20.953 22.0989ZM21.7759 21.6979C21.677 21.8229 21.6197 21.8958 21.5416 21.9948C21.4791 21.8646 21.4426 21.7864 21.3957 21.6979C21.4999 21.6979 21.5989 21.6979 21.7759 21.6979ZM21.7186 23.7604C21.7082 23.9427 21.703 24.026 21.6978 24.1302C21.4791 24.0208 21.6041 23.9375 21.7186 23.7604ZM21.7291 25.5989C21.7239 25.5937 21.7186 25.5937 21.7134 25.5937C21.7134 25.5885 21.7134 25.5833 21.7134 25.5833C21.6353 25.5989 21.5572 25.6146 21.4791 25.6302C21.2291 25.2916 21.2551 25.2291 21.6718 25.1146C21.8853 25.2552 21.7186 25.4271 21.7134 25.5833C21.7186 25.5833 21.7239 25.5833 21.7239 25.5781C21.7291 25.5885 21.7291 25.5937 21.7291 25.5989C21.802 25.625 21.8749 25.6458 21.9634 25.6771C21.7864 25.776 21.7811 25.776 21.7291 25.5989ZM22.7082 21.0729C22.7291 21.0833 22.7499 21.0885 22.7707 21.0937C22.7447 21.1875 22.7239 21.2812 22.6978 21.375C22.6614 21.3594 22.6249 21.3489 22.5936 21.3385C22.6301 21.25 22.6666 21.1614 22.7082 21.0729ZM22.7186 27.4271C22.5832 27.1823 22.7239 27.125 22.8593 27.026C22.9947 27.2291 22.8332 27.2969 22.7186 27.4271ZM23.328 21.1302C23.5572 21.25 23.4322 21.3489 23.3072 21.4219C23.3124 21.3333 23.3176 21.25 23.328 21.1302ZM23.3124 23.5104C23.2916 23.4635 23.2707 23.4166 23.2499 23.3698C23.2864 23.3437 23.3176 23.3125 23.3541 23.2812C23.3697 23.3385 23.3957 23.3906 23.3957 23.4427C23.3957 23.4687 23.3384 23.4896 23.3124 23.5104ZM23.2082 22.6823C23.3384 22.4687 23.3124 22.151 23.6614 22.3906C23.6666 22.3958 23.7811 22.3541 23.7447 22.4427C23.7134 22.5312 23.6301 22.6302 23.5468 22.6719C23.4739 22.7083 23.3645 22.6823 23.2082 22.6823ZM23.8332 25.7708C23.7603 25.7708 23.6926 25.7708 23.6197 25.7708C23.6197 25.7396 23.6197 25.7135 23.6249 25.6823C23.6926 25.6875 23.7655 25.6875 23.8384 25.6927C23.8384 25.7187 23.8332 25.7448 23.8332 25.7708ZM26.2707 28.5521C26.2551 28.5208 26.2395 28.4948 26.2186 28.4635C26.2759 28.4323 26.3332 28.4062 26.3905 28.3802C26.4009 28.401 26.4114 28.4166 26.427 28.4375C26.3749 28.4739 26.3228 28.5156 26.2707 28.5521ZM26.5624 28.5885C26.6874 28.5781 26.8072 28.5677 26.9426 28.5573C26.8436 28.7396 26.7082 28.7031 26.5624 28.5885ZM26.9582 27.0989C26.9426 27.0781 26.9322 27.0521 26.9218 27.0312C27.0051 26.9791 27.0884 26.9271 27.1718 26.8698C27.1874 26.9062 27.2082 26.9375 27.2239 26.9687C27.1353 27.0104 27.0468 27.0573 26.9582 27.0989ZM27.3489 27.0885C27.3801 27.0156 27.3957 26.9791 27.4218 26.9166C27.5051 26.9687 27.5832 27.0156 27.7291 27.1041C27.5624 27.0989 27.4634 27.0937 27.3489 27.0885ZM28.8697 27.3385C28.8436 27.3229 28.8228 27.3125 28.802 27.3021C28.8384 27.2187 28.8801 27.1302 28.9218 27.0469C28.9478 27.0677 28.9739 27.0885 28.9999 27.1041C28.9582 27.1823 28.9114 27.2604 28.8697 27.3385ZM31.1978 27.7083C31.1145 27.7031 31.0364 27.6927 30.9426 27.6823C31.0364 27.4896 31.0364 27.4896 31.2395 27.6614C31.2291 27.6771 31.2134 27.7083 31.1978 27.7083ZM33.578 21.8646C33.578 21.9323 33.578 22 33.578 22.0677C33.5572 22.0729 33.5364 22.0729 33.5103 22.0781C33.4999 22.0052 33.4895 21.9271 33.4791 21.8541C33.5103 21.8594 33.5468 21.8594 33.578 21.8646ZM33.6145 23.6198C33.4843 23.6041 33.3645 23.5469 33.2395 23.5C33.2291 23.4948 33.2343 23.4114 33.2551 23.3906C33.2916 23.3541 33.3541 23.3073 33.3905 23.3177C33.5364 23.3541 33.6822 23.4166 33.9061 23.5C33.7655 23.5573 33.6874 23.625 33.6145 23.6198ZM38.0051 20.8333C37.9218 20.9062 37.8541 21.0208 37.6509 20.8073C37.8801 20.7604 38.0364 20.7291 38.1926 20.6979C38.2499 21.0312 38.0572 20.7864 38.0051 20.8333ZM38.5676 18.1875C38.5416 18.1823 38.5155 18.1771 38.4895 18.1719C38.5051 18.0989 38.5155 18.0312 38.5311 17.9583C38.552 17.9583 38.578 17.9635 38.6041 17.9687C38.5884 18.0416 38.578 18.1146 38.5676 18.1875ZM39.4061 17.6719C39.4374 17.6041 39.4739 17.5416 39.5103 17.4739C39.6249 17.6041 39.6249 17.6041 39.4061 17.6719ZM39.6353 17.9896C39.6926 17.9271 39.7551 17.8594 39.8697 17.7291C39.9374 17.9062 39.9791 18.026 40.0364 18.1666C39.7968 18.2187 39.6978 18.1406 39.6353 17.9896ZM40.2603 18.7812C40.1301 18.6562 40.0624 18.5364 40.3332 18.3698C40.3436 18.5469 40.3541 18.6562 40.3593 18.7708C40.3124 18.776 40.2759 18.7916 40.2603 18.7812ZM40.203 16.1666C40.3645 16.0156 40.3645 16.0156 40.5728 16.3073C40.3905 16.2396 40.302 16.2031 40.203 16.1666ZM40.6822 17.8437C40.7551 17.8906 40.8228 17.9271 40.953 18.0052C40.7291 18.0729 40.6249 18.0781 40.6822 17.8437ZM41.6718 14.5937C41.6666 14.5625 41.6666 14.5312 41.6614 14.5052C41.7551 14.4896 41.8436 14.4739 41.9374 14.4583C41.9374 14.4948 41.9426 14.5364 41.9478 14.5781C41.8541 14.5833 41.7655 14.5885 41.6718 14.5937ZM42.6666 3.85415C42.6509 3.95831 42.6353 4.05206 42.6249 4.14581C42.5989 4.14581 42.5676 4.14581 42.5416 4.15102C42.4895 4.05206 42.4322 3.95831 42.3541 3.8229C42.4739 3.83331 42.5624 3.84373 42.6666 3.85415ZM42.4686 4.39581C42.5207 4.54685 42.552 4.64061 42.6093 4.81769C42.3228 4.71873 42.2655 4.62498 42.4686 4.39581ZM42.5884 11.3385C42.5884 11.375 42.5884 11.4114 42.5884 11.4479C42.4895 11.5 42.3957 11.5469 42.302 11.5937C42.2759 11.5781 42.2551 11.5625 42.2291 11.5469C42.2603 11.4479 42.2707 11.3333 42.3384 11.2708C42.3749 11.2396 42.5051 11.3125 42.5884 11.3385ZM42.3124 5.16144C42.0989 5.31248 42.078 5.14581 41.9582 4.99477C42.1145 5.06769 42.1978 5.10935 42.3124 5.16144ZM40.9322 2.2031C41.0416 2.3229 41.1197 2.40623 41.2082 2.50519C41.0572 2.6354 40.9426 2.72915 40.828 2.8229C40.8072 2.81248 40.7916 2.79685 40.7707 2.78644C40.8176 2.61456 40.8645 2.44269 40.9322 2.2031ZM39.8801 3.69269C39.6561 3.85415 39.6561 3.85415 39.4739 3.58852C39.6561 3.6354 39.7707 3.66665 39.8801 3.69269ZM38.4114 4.54165C38.4739 4.60935 38.5311 4.67706 38.5936 4.74998C38.5572 4.77081 38.5155 4.79685 38.4791 4.8229C38.4374 4.74477 38.3957 4.66665 38.3541 4.58852C38.3749 4.5729 38.3905 4.55727 38.4114 4.54165ZM37.9114 5.17185C37.802 5.19269 37.7186 5.21352 37.5936 5.23956C37.6822 5.04685 37.7551 5.00519 37.9114 5.17185ZM37.828 6.41665C37.8228 6.5104 37.8176 6.59894 37.8124 6.69269C37.7968 6.69269 37.7759 6.68748 37.7603 6.68748C37.7603 6.59894 37.7603 6.50519 37.7603 6.41665C37.7811 6.41665 37.8072 6.41665 37.828 6.41665ZM37.8228 7.4531C37.7499 7.39581 37.6926 7.34894 37.5936 7.27081C37.7968 7.22394 37.8697 7.24998 37.8228 7.4531ZM37.6926 7.64581C37.5832 7.63019 37.5155 7.61456 37.4166 7.59894C37.5572 7.5156 37.5572 7.5156 37.6926 7.64581ZM37.3801 5.97915C37.4009 5.97394 37.4218 5.97394 37.4426 5.97394C37.4426 6.05206 37.4426 6.12498 37.4426 6.1979C37.4218 6.1979 37.4009 6.1979 37.3801 6.1979C37.3801 6.12498 37.3801 6.05206 37.3801 5.97915ZM37.4374 7.74998C37.4686 7.83331 37.4999 7.91665 37.5311 7.99998C37.4947 8.0104 37.4582 8.02081 37.4218 8.03123C37.3957 7.9531 37.3749 7.86977 37.3489 7.78644C37.3801 7.77602 37.4061 7.7656 37.4374 7.74998ZM36.0416 18.9791C36.1666 18.5156 36.1145 18.0469 36.1822 17.5833C36.203 17.4427 36.2551 17.3021 36.2811 17.1614C36.2864 17.151 36.2864 17.1406 36.2864 17.1302C36.2551 17.1094 36.2239 17.0833 36.177 17.0573C36.2343 17.0156 36.2759 16.9687 36.302 16.9791C36.3072 16.9791 36.3072 16.9844 36.3124 16.9844C36.3905 16.526 36.4634 16.0677 36.5572 15.6094C36.6926 14.9479 36.7811 14.276 37.0416 13.6406C37.0832 13.5416 37.1041 13.4271 37.1249 13.3177C37.1822 13.0364 37.2134 12.7448 37.3801 12.4896C37.4478 12.3854 37.4374 12.2344 37.4582 12.1041C37.4843 11.8958 37.4843 11.6771 37.7082 11.5625C37.6666 11.2396 37.7759 10.9427 37.8957 10.6562C38.2343 9.85415 38.5936 9.05727 38.9478 8.2604C39.052 8.02081 39.1457 7.78123 39.2551 7.54685C39.3436 7.35935 39.4374 7.17185 39.5468 6.99477C39.5259 6.99477 39.5051 6.99998 39.4895 6.99998C39.4843 6.97394 39.4843 6.94269 39.4843 6.91144C39.5207 6.91144 39.5572 6.90623 39.5989 6.90623C39.8384 6.5104 40.1093 6.1354 40.3853 5.7656C40.6561 5.3906 40.9739 5.28123 41.4166 5.41144C41.4947 5.43227 41.5936 5.47915 41.6405 5.54685C41.9166 5.94269 42.177 6.34373 42.1614 6.86456C42.1561 6.99477 42.2239 7.12498 42.2343 7.25519C42.2395 7.40623 42.2186 7.56248 42.2082 7.71873C42.1822 8.09894 42.1509 8.47915 42.1353 8.85935C42.1197 9.17706 42.0624 9.48956 41.9791 9.79165C42.0572 9.74998 42.1197 9.71352 42.1874 9.67706C42.1822 9.82811 42.177 9.83852 41.9686 9.8281C41.9114 10.0416 41.8384 10.25 41.7499 10.4583C41.703 10.5833 41.6666 10.7187 41.6509 10.8489C41.6353 11.0104 41.6926 11.1823 41.5311 11.3021C41.5676 11.7135 41.302 12.0469 41.2395 12.4323C41.2082 12.625 41.0936 12.8073 41.0155 12.9948C40.9634 13.1302 40.8228 13.25 40.8957 13.4271C40.9061 13.4479 40.8853 13.5052 40.8697 13.5156C40.6249 13.6094 40.6509 13.8906 40.5103 14.0573C40.4478 14.1354 40.3228 14.2448 40.4686 14.375C40.4843 14.3906 40.4426 14.5156 40.4009 14.5469C40.1249 14.7291 40.0624 15.026 39.9426 15.2969C39.8384 15.5208 39.7291 15.7396 39.6197 15.9583C39.5364 16.1146 39.453 16.2708 39.3645 16.4271C39.3124 16.5208 39.2499 16.6146 39.1874 16.7031C39.0676 16.8594 38.9322 17.0052 38.8228 17.1666C38.5936 17.5156 38.328 17.8229 38.0155 18.0989C37.6978 18.3802 37.4009 18.6823 37.0832 18.9687C36.9374 19.0989 36.7811 19.2344 36.6041 19.3229C36.578 19.3333 36.5572 19.3489 36.5364 19.3698C36.5884 19.4635 36.6353 19.5625 36.6874 19.6562C36.6614 19.6719 36.6353 19.6875 36.6041 19.7031C36.5572 19.6146 36.5051 19.5312 36.4582 19.4427C36.3957 19.5052 36.328 19.5573 36.2186 19.5312C36.1926 19.526 36.1405 19.6666 36.0989 19.7396C36.078 19.7344 36.052 19.7291 36.0311 19.7239C36.0311 19.4739 35.9791 19.2083 36.0416 18.9791ZM35.9947 18.7291C35.9634 18.8125 35.9322 18.901 35.8905 18.9791C35.8905 18.9844 35.7864 18.9427 35.7864 18.9427C35.8072 18.8541 35.8384 18.7708 35.8697 18.6875C35.9114 18.6979 35.953 18.7135 35.9947 18.7291ZM35.7968 8.15102C35.8332 8.43748 35.7499 8.47394 35.552 8.37498C35.6249 8.30727 35.6874 8.24998 35.7968 8.15102ZM35.3436 8.78123C35.3384 8.7604 35.3332 8.73956 35.328 8.71352C35.4166 8.68748 35.5051 8.65623 35.5989 8.63019C35.6041 8.66665 35.6145 8.7031 35.6197 8.73956C35.5311 8.74998 35.4374 8.7656 35.3436 8.78123ZM35.4634 15.6146C35.4895 15.6146 35.5103 15.6198 35.5364 15.625C35.5259 15.6979 35.5155 15.7708 35.5051 15.8437C35.4791 15.8385 35.453 15.8385 35.427 15.8333C35.4374 15.7604 35.453 15.6875 35.4634 15.6146ZM35.3124 18.3437C35.3384 18.3489 35.3645 18.3541 35.3905 18.3594C35.3541 18.526 35.3124 18.6875 35.2707 18.8489C35.2551 18.8437 35.2343 18.8437 35.2134 18.8385C35.2499 18.6719 35.2811 18.5052 35.3124 18.3437ZM34.9843 16.7656C34.9634 16.7344 34.953 16.7239 34.9478 16.7135C35.0676 16.7448 35.2186 16.5208 35.3541 16.8385C35.1874 16.8073 35.078 16.7864 34.9843 16.7656ZM35.1405 13.276C35.2186 13.1823 35.302 13.0937 35.4009 12.9844C35.4426 13.2083 35.4426 13.2083 35.1405 13.276ZM35.3593 11.1406C35.3749 11.1666 35.3853 11.1927 35.4009 11.2187C35.3228 11.2552 35.2499 11.2969 35.1718 11.3333C35.1614 11.3125 35.1509 11.2969 35.1405 11.276C35.2134 11.2291 35.2864 11.1875 35.3593 11.1406ZM35.1874 14.8385C35.3436 15.0156 35.3436 15.0156 35.0728 15.1354C35.1197 15.0052 35.1509 14.9271 35.1874 14.8385ZM34.4895 17.5573C34.552 17.6458 34.5989 17.7083 34.6457 17.7708C34.5884 17.8073 34.5364 17.8437 34.4791 17.8802C34.4374 17.8125 34.3853 17.7552 34.3593 17.6823C34.3541 17.6614 34.427 17.6146 34.4895 17.5573ZM34.1666 14.1041C34.203 14.1041 34.2343 14.1041 34.2707 14.1041C34.2759 14.1875 34.2864 14.2656 34.2916 14.3489C34.2603 14.3541 34.2343 14.3541 34.2082 14.3594C34.1926 14.276 34.177 14.1927 34.1666 14.1041ZM34.4218 23.2864C34.3645 23.2864 34.3072 23.2864 34.2499 23.2864C34.2499 23.2656 34.2499 23.2396 34.2551 23.2187C34.3072 23.2239 34.3645 23.2239 34.4218 23.2291C34.4218 23.25 34.4218 23.2656 34.4218 23.2864ZM34.6561 22.026C34.5676 21.9791 34.4843 21.9375 34.3957 21.8906C34.4114 21.8594 34.4218 21.8333 34.4374 21.8021C34.5259 21.8437 34.6145 21.8906 34.7082 21.9323C34.6874 21.9635 34.6718 21.9948 34.6561 22.026ZM34.8176 16.1562C34.7707 16.3073 34.7447 16.4791 34.4947 16.4687C34.5416 16.276 34.6197 16.151 34.8176 16.1562C34.8176 16.151 34.8228 16.1458 34.8228 16.1406H34.828C34.7291 15.9375 34.7811 15.7396 34.8801 15.5521C34.8801 15.5469 34.8801 15.5416 34.8749 15.5416C34.8801 15.5416 34.8853 15.5469 34.8853 15.5469C34.9582 15.5052 35.0259 15.4635 35.1197 15.4062C35.177 15.5 35.2343 15.5937 35.2916 15.6875C35.2759 15.7083 35.2655 15.7239 35.2499 15.7396C35.1301 15.6771 35.0103 15.6094 34.8853 15.5469C34.8853 15.5469 34.8853 15.5469 34.8801 15.5469C34.8801 15.5469 34.8801 15.5469 34.8801 15.5521C34.9947 15.7448 34.9061 15.9635 34.9582 16.1666C34.9166 16.1562 34.8697 16.151 34.828 16.1406C34.8332 16.1458 34.8332 16.151 34.8384 16.1562C34.828 16.1562 34.8228 16.1562 34.8176 16.1562ZM34.9895 17.5781C35.0468 17.6719 35.1041 17.7656 35.1614 17.8594C35.1041 17.8958 35.0468 17.9271 34.9843 17.9635C34.9374 17.8594 34.8905 17.7552 34.8436 17.6562C34.8905 17.6302 34.9374 17.6041 34.9895 17.5781ZM34.9478 20.9062C34.9478 20.9062 34.9009 20.9166 34.8749 20.9219C34.8697 20.8646 34.8645 20.8073 34.8593 20.75C34.8801 20.75 34.9009 20.75 34.927 20.75C34.9322 20.8021 34.9426 20.8541 34.9478 20.9062ZM34.8801 26.4791C34.8697 26.4583 34.8593 26.4375 34.8436 26.4166C34.9009 26.3646 34.953 26.3177 35.0051 26.2708C35.0311 26.3125 35.0572 26.3594 35.0832 26.401C35.0155 26.4271 34.9478 26.4531 34.8801 26.4791ZM34.9947 21.4479C34.9895 21.4375 35.052 21.3698 35.0676 21.375C35.1041 21.3906 35.1301 21.4271 35.1718 21.4687C35.1405 21.5 35.1145 21.5312 35.0884 21.5573C35.0572 21.5208 35.0155 21.4896 34.9947 21.4479ZM35.3228 22.3541C35.2707 22.3281 35.2134 22.3125 35.177 22.276C35.1457 22.2344 35.1405 22.1719 35.1614 22.0833C35.2343 22.151 35.302 22.2135 35.3697 22.2812C35.3541 22.3021 35.3384 22.3281 35.3228 22.3541ZM35.4218 20.9166C35.4009 20.8802 35.3541 20.8333 35.3645 20.8125C35.3853 20.7656 35.4322 20.7291 35.4739 20.6927C35.4791 20.6875 35.5259 20.7344 35.5728 20.776C35.5103 20.8333 35.4634 20.875 35.4218 20.9166ZM35.578 10.6771C35.5884 10.6562 35.6041 10.6406 35.6197 10.6198C35.677 10.6614 35.7343 10.6979 35.7968 10.7344C35.7759 10.7656 35.7499 10.7916 35.7291 10.8177C35.677 10.7708 35.6301 10.7239 35.578 10.6771ZM35.7655 21.0781C35.7759 20.9687 35.7811 20.8906 35.7916 20.776C35.8697 20.8333 35.9114 20.8646 35.9686 20.9062C35.9061 20.9583 35.8489 21.0052 35.7655 21.0781ZM36.1353 25.276C36.3801 25.276 36.4999 25.2916 36.4843 25.5729C36.3384 25.4479 36.2655 25.3906 36.1353 25.276ZM36.578 25.7031C36.6561 25.7291 36.7395 25.7552 36.8176 25.7812C36.8072 25.8021 36.7968 25.8281 36.7916 25.8489C36.7134 25.8229 36.6353 25.7916 36.5572 25.7604C36.5676 25.7396 36.5728 25.7239 36.578 25.7031ZM36.6145 28.2291C36.6926 28.0937 36.7291 28.0312 36.7811 27.9427C36.9322 28.151 36.7811 28.1458 36.6145 28.2291ZM38.5051 26.375C38.4478 26.3177 38.3905 26.2656 38.3384 26.2135C38.3541 26.1927 38.3697 26.1771 38.3905 26.1562C38.4478 26.2083 38.5051 26.2604 38.5624 26.3125C38.5416 26.3333 38.5207 26.3541 38.5051 26.375ZM39.2864 26.4635C39.2968 26.5833 39.302 26.6719 39.3072 26.8021C39.1197 26.6823 39.1093 26.5937 39.2864 26.4635ZM39.0832 27.8385C39.0416 27.6302 39.1561 27.6719 39.3384 27.6666C39.2134 27.75 39.1561 27.7864 39.0832 27.8385ZM39.7082 27.9687C39.6561 27.9062 39.5989 27.8489 39.5416 27.7916C39.5572 27.7708 39.5728 27.7552 39.5884 27.7344C39.6561 27.7864 39.7239 27.8385 39.7968 27.8958C39.7655 27.9166 39.7395 27.9427 39.7082 27.9687ZM40.3176 26.7344C40.302 26.7239 40.2811 26.7135 40.2655 26.6979C40.3124 26.6302 40.3593 26.5625 40.4061 26.4896C40.427 26.5052 40.4426 26.5156 40.4582 26.526C40.4114 26.5989 40.3645 26.6666 40.3176 26.7344ZM40.9895 27.5521C41.2343 27.4531 41.3124 27.5208 41.3645 27.7708C41.2186 27.6875 41.1301 27.6354 40.9895 27.5521ZM41.3436 25.9323C41.3697 25.8385 41.3905 25.7448 41.4114 25.6458C41.4426 25.6562 41.4739 25.6666 41.5051 25.6719C41.4843 25.7656 41.4634 25.8594 41.4374 25.9531C41.4061 25.9479 41.3749 25.9427 41.3436 25.9323ZM41.578 27.5312C41.552 27.5 41.4999 27.4635 41.4999 27.4375C41.5051 27.3906 41.5468 27.3437 41.578 27.2812C41.6249 27.3385 41.6718 27.375 41.6666 27.401C41.6561 27.4479 41.6093 27.4844 41.578 27.5312ZM41.9999 25.7916C41.9791 25.7864 41.9582 25.7864 41.9374 25.7812C41.953 25.6719 41.9686 25.5573 41.9843 25.4427C42.0103 25.4479 42.0364 25.4531 42.0624 25.4583C42.0416 25.5677 42.0207 25.6823 41.9999 25.7916ZM44.8957 16.5677C44.8957 16.7187 44.8957 16.7864 44.8957 16.8802C44.7968 16.8541 44.7186 16.8333 44.6197 16.8073C44.703 16.7344 44.7707 16.6771 44.8957 16.5677ZM43.8489 24.8125C43.8541 24.8333 43.8645 24.8489 43.8697 24.8698C43.8593 24.8489 43.8541 24.8333 43.8489 24.8125C43.7707 24.625 43.7603 24.4479 43.927 24.2656C44.1353 24.5 43.8072 24.6302 43.8489 24.8125ZM43.9114 22.0156C43.9114 21.8333 43.9114 21.6823 43.9114 21.5312C43.9426 21.5208 43.9686 21.5156 43.9947 21.5052C44.0832 21.6198 44.1666 21.7291 44.2603 21.8541C44.1457 21.9062 44.0468 21.9531 43.9114 22.0156ZM44.302 19.0833C44.3176 18.9271 44.3228 18.8437 44.3332 18.7344C44.4114 18.8021 44.4739 18.8541 44.5416 18.9062C44.4791 18.9531 44.4166 19 44.302 19.0833ZM44.6457 23.4635C44.6353 23.4427 44.6197 23.4166 44.6093 23.3906C44.6666 23.3541 44.7291 23.3229 44.7864 23.2864C44.8072 23.3177 44.828 23.3489 44.8489 23.375C44.7812 23.4062 44.7134 23.4375 44.6457 23.4635ZM44.7759 19.7864C44.9895 19.6302 45.0155 19.776 45.0416 19.9271C44.953 19.8802 44.8645 19.8333 44.7759 19.7864ZM45.2187 22.7864C45.0884 22.6354 45.0884 22.6354 45.2707 22.5156C45.2499 22.6146 45.2343 22.6927 45.2187 22.7864ZM46.5051 10.5052C46.4999 10.3646 46.4895 10.2239 46.4791 10.0312C46.677 10.2083 46.5572 10.3594 46.5051 10.5052ZM45.3384 20.6406C45.4478 20.5104 45.5103 20.4323 45.6041 20.3125C45.6197 20.5104 45.6509 20.6614 45.3384 20.6406ZM45.7291 24.4219C45.7291 24.4271 45.7291 24.4375 45.7343 24.4427C45.8437 24.4896 45.8905 24.5729 45.8072 24.7864C45.7707 24.6198 45.7499 24.526 45.7343 24.4427C45.7291 24.4375 45.7239 24.4375 45.7134 24.4323C45.7187 24.4323 45.7239 24.4271 45.7291 24.4219C45.6405 24.3594 45.5624 24.2812 45.6718 24.1875C45.7134 24.151 45.8124 24.1823 45.9478 24.1823C45.8436 24.2969 45.7864 24.3594 45.7291 24.4219ZM46.052 19.9896C46.1041 19.9271 46.1405 19.8489 46.1926 19.8333C46.3541 19.7916 46.4322 19.8698 46.4218 20.0781C46.2968 20.0469 46.1874 20.0208 46.052 19.9896ZM46.3437 25.0469C46.3853 25.1771 46.4166 25.2708 46.453 25.3854C46.1718 25.3229 46.1718 25.3229 46.3437 25.0469ZM46.3228 21.1041C46.4426 21.0573 46.5103 21.0364 46.5728 21.0156C46.5832 21.2344 46.5832 21.2344 46.3228 21.1041ZM46.5155 20.8698C46.427 20.7083 46.427 20.7083 46.6197 20.5989C46.578 20.7135 46.5468 20.7812 46.5155 20.8698ZM46.6249 14.5989C46.6614 14.7396 46.6822 14.8437 46.7187 15.0156C46.427 14.9062 46.4062 14.7969 46.6249 14.5989ZM46.8593 20.9323C46.8176 20.9166 46.7707 20.8958 46.7291 20.8802C46.7707 20.7916 46.8176 20.7083 46.8593 20.6198C46.8905 20.6354 46.927 20.6458 46.9582 20.6614C46.927 20.75 46.8905 20.8437 46.8593 20.9323ZM46.8593 17.8385C46.8437 17.8281 46.828 17.8177 46.8124 17.8125C46.8489 17.7396 46.8853 17.6719 46.9218 17.6041C46.953 17.625 46.9843 17.6458 47.0155 17.6719C46.9634 17.7239 46.9114 17.7812 46.8593 17.8385ZM47.1509 24.026C47.1301 23.9427 47.1093 23.8594 47.0937 23.7708C47.1197 23.7656 47.1457 23.7604 47.1718 23.7552C47.1874 23.8385 47.203 23.9271 47.2239 24.0104C47.1978 24.0156 47.1718 24.0208 47.1509 24.026ZM47.2134 22.7656C47.1874 22.7604 47.1614 22.7604 47.1509 22.7448C47.0468 22.6146 47.0468 22.5208 47.2812 22.4583C47.2499 22.5989 47.2343 22.6823 47.2134 22.7656ZM47.2603 22.1823C47.177 22.1146 47.1197 22.0625 47.0624 22.0156C47.2082 21.9531 47.3437 21.9323 47.2603 22.1823ZM47.7707 26.0989C47.7499 26.1041 47.7082 26.0781 47.7082 26.0677C47.7134 26.026 47.7343 25.9896 47.7499 25.9323C47.8124 26.0208 47.828 26.0416 47.8437 26.0677C47.8228 26.0781 47.7968 26.0989 47.7707 26.0989ZM47.6197 23.375C47.6041 23.3541 47.5936 23.3281 47.578 23.3021C47.6562 23.2604 47.7343 23.2187 47.8072 23.1771C47.8228 23.2083 47.8384 23.2344 47.8541 23.2656C47.7759 23.3021 47.6978 23.3385 47.6197 23.375ZM48.2395 24.7187C48.4166 24.4166 48.453 24.3958 48.7082 24.4896C48.5207 24.5781 48.3957 24.6406 48.2395 24.7187ZM52.1093 25.5625C52.1509 25.5312 52.177 25.4948 52.2134 25.4844C52.3697 25.4479 52.4426 25.5052 52.4478 25.7396C52.2968 25.6614 52.2134 25.6146 52.1093 25.5625ZM52.6301 24.8125C52.578 24.7864 52.5676 24.6719 52.5572 24.5989C52.5572 24.5469 52.5832 24.5 52.6041 24.4479L52.5989 24.4427C52.5989 24.4375 52.5989 24.4323 52.5937 24.4323C52.3437 24.4166 52.4374 24.25 52.5155 24.0989C52.5416 24.2083 52.5676 24.3177 52.5937 24.4323C52.5989 24.4323 52.6041 24.4323 52.6093 24.4323C52.6093 24.4375 52.6093 24.4427 52.6041 24.4479C52.6926 24.5156 52.7812 24.5833 52.8645 24.6458C52.8489 24.8125 52.7655 24.8854 52.6301 24.8125ZM55.828 18.8854C55.7968 18.8854 55.7603 18.8802 55.7291 18.8802C55.7395 18.7812 55.7551 18.6771 55.7655 18.5781C55.7968 18.5781 55.828 18.5833 55.8541 18.5885C55.8489 18.6875 55.8384 18.7864 55.828 18.8854ZM56.2551 17.2448C56.177 17.2396 56.0989 17.2344 56.0259 17.2291C56.0312 17.1927 56.0364 17.1562 56.0468 17.1198C56.1197 17.1406 56.1926 17.1562 56.2655 17.1771C56.2603 17.1979 56.2603 17.2239 56.2551 17.2448ZM56.4582 17.5469C56.4791 17.5937 56.5051 17.6354 56.5155 17.6823C56.5155 17.6979 56.4687 17.7344 56.4634 17.7344C56.427 17.7031 56.3905 17.6666 56.3384 17.6198C56.3957 17.5833 56.427 17.5677 56.4582 17.5469ZM56.5416 23.2552C56.5155 23.1614 56.4895 23.0625 56.4634 22.9687C56.4947 22.9583 56.5312 22.9479 56.5676 22.9375C56.5937 23.0364 56.6197 23.1302 56.6509 23.2291C56.6145 23.2396 56.578 23.2448 56.5416 23.2552ZM57.052 17.6146C56.9739 17.6041 56.8905 17.5833 56.8072 17.5677C56.8176 17.5364 56.8228 17.5104 56.828 17.4791C56.9114 17.4948 56.9947 17.5156 57.078 17.5364C57.0676 17.5625 57.0572 17.6146 57.052 17.6146ZM62.5676 12.8854C62.5676 12.8802 62.6145 12.8802 62.6405 12.8802C62.6405 12.9375 62.6405 13 62.6405 13.0573C62.6145 13.0573 62.5884 13.0573 62.5624 13.0573C62.5624 13 62.5624 12.9427 62.5676 12.8854ZM60.2239 12.7187C60.2343 12.7083 60.2759 12.7291 60.302 12.7396C60.2759 12.8177 60.2551 12.901 60.2291 12.9791C60.1822 12.9635 60.1405 12.9427 60.0937 12.9271C60.1353 12.8541 60.177 12.7864 60.2239 12.7187ZM58.1405 13.8385C58.1666 13.8437 58.1874 13.8541 58.2134 13.8646C58.1822 13.9219 58.1509 13.9791 58.1197 14.0416C58.1041 14.0312 58.0884 14.026 58.0728 14.0208C58.0936 13.9583 58.1145 13.8958 58.1405 13.8385ZM59.7395 26.0625C59.802 25.9583 59.8697 25.8541 59.9426 25.7291C59.9739 25.9375 59.9739 25.9375 59.7395 26.0625ZM61.578 22.5416C61.4374 22.625 61.3853 22.8177 61.2291 22.9271C60.8697 23.1771 60.4791 23.401 60.0624 23.4739C59.677 23.5416 59.2395 23.5312 58.8437 23.3594C58.6874 23.0885 58.2864 23.0625 58.203 22.7187C57.6301 22.151 57.6718 21.3854 57.5624 20.6719C57.5364 20.4948 57.6197 20.3021 57.6509 20.1146C57.6614 20.0521 57.6666 19.9844 57.677 19.9219C57.7499 19.5052 57.8176 19.0885 57.8905 18.6719C57.8905 18.6614 57.9062 18.6562 57.9582 18.625C58.0364 18.7291 58.1353 18.8281 58.1978 18.9479C58.2968 19.1146 58.3905 19.2656 58.5676 19.375C58.7343 19.4791 58.8645 19.6354 59.0155 19.7708C59.2291 19.9635 59.4322 20.1614 59.6562 20.3385C59.7239 20.3906 59.8332 20.3802 59.9634 20.4062C60.1822 20.6979 60.5155 20.8177 60.9218 20.8281C61.0989 20.8333 61.2707 20.9427 61.453 21.0052C61.8332 20.9844 62.2395 20.9583 62.6614 20.9375C62.6353 21.2239 62.4791 21.4219 62.3437 21.6198C62.1197 21.9531 61.9478 22.3177 61.578 22.5416ZM61.2187 19.7187C61.2187 19.8125 61.2187 19.9114 61.2187 20.026C61.0051 19.8854 61.1718 19.8073 61.2187 19.7187ZM61.4843 19.9687C61.4895 20.0312 61.4947 20.0937 61.4999 20.1614C61.4843 20.1614 61.4634 20.1666 61.4478 20.1719C61.427 20.1041 61.4062 20.0364 61.3905 19.9739C61.4218 19.9687 61.453 19.9687 61.4843 19.9687ZM61.3957 18.9739C61.427 18.9948 61.4687 19.0104 61.4947 19.0364C61.5103 19.0521 61.5051 19.0885 61.5051 19.1146C61.4843 19.125 61.4634 19.1354 61.4426 19.1458C61.427 19.0885 61.4114 19.0312 61.3957 18.9739ZM62.6041 21.6562C62.7291 21.7239 62.7968 21.7604 62.9322 21.8333C62.7447 21.8854 62.6301 21.9687 62.6041 21.6562ZM63.5312 18.4166C63.5103 18.6562 63.4791 18.8802 63.3124 19.0885C62.6614 19.2448 62.0155 19.1406 61.3749 18.9583C61.2603 18.9271 61.1614 18.8385 61.0624 18.7708C61.0155 18.7448 60.9582 18.6666 60.9374 18.6771C60.7291 18.776 60.677 18.5833 60.6041 18.4844C60.4426 18.276 60.3124 18.0416 60.1666 17.8177C60.1509 17.7916 60.1301 17.7604 60.1041 17.7396C59.9582 17.6094 59.7864 17.4948 59.8124 17.2552C59.4843 16.8698 59.5468 16.3854 59.5416 15.9427C59.5364 15.2656 59.6405 14.5833 59.9062 13.9479C59.9895 13.7396 60.0728 13.526 60.1978 13.3437C60.5259 12.8594 60.9478 12.6198 61.5832 12.7031C61.9634 12.7552 62.2499 12.9427 62.4895 13.151C62.7864 13.4062 62.9895 13.776 63.1093 14.1719C63.2082 14.4791 63.3489 14.7708 63.4374 15.0729C63.5103 15.3125 63.5572 15.5625 63.578 15.8125C63.6197 16.3437 63.6614 16.8802 63.6562 17.4166C63.6562 17.75 63.5624 18.0833 63.5312 18.4166ZM63.8853 13.4687C63.8645 13.4948 63.8436 13.5208 63.8228 13.5416C63.7812 13.4948 63.7395 13.4427 63.6926 13.3906C63.7551 13.4166 63.8228 13.4427 63.8853 13.4687ZM63.9791 18.0989C63.927 18.1146 63.8645 18.1041 63.802 18.1041C63.802 18.0729 63.802 18.0416 63.7968 18.0104C63.8645 18 63.927 17.9896 63.9947 17.9739C63.9895 18.0208 63.9947 18.0989 63.9791 18.0989ZM63.703 13.8385C63.7916 13.625 63.927 13.8802 64.052 13.8333C64.1822 13.7864 64.3332 13.8333 64.3541 14.0312C64.1353 13.9635 63.927 13.901 63.703 13.8385ZM64.3801 13.5156C64.4895 13.3594 64.5728 13.3541 64.6457 13.5937C64.5259 13.5573 64.453 13.5364 64.3801 13.5156ZM64.6509 14.5677C64.6405 14.5469 64.6197 14.5156 64.6301 14.4948C64.6405 14.4791 64.677 14.4739 64.6978 14.4635C64.7134 14.4844 64.7291 14.5052 64.7447 14.526C64.7134 14.5416 64.6822 14.5573 64.6509 14.5677ZM64.6874 14.1458C64.6301 14.151 64.5624 14.0781 64.4999 14.0364C64.552 13.9844 64.5937 13.8906 64.6509 13.8802C64.7291 13.8698 64.8124 13.9219 64.9687 13.9739C64.8332 14.0625 64.7655 14.1354 64.6874 14.1458Z" fill="black"/>
</g>
</svg>
