<svg width="116" height="116" viewBox="0 0 116 116" fill="none" xmlns="http://www.w3.org/2000/svg">
<path d="M50.052 101.078C74.8489 92.0574 89.9375 100.813 90.552 101.177C90.6979 101.26 90.8177 101.365 90.9218 101.495C91.0208 101.625 91.0937 101.771 91.1354 101.932C91.177 102.089 91.1875 102.25 91.1666 102.417C91.1406 102.578 91.0885 102.729 91.0052 102.875C90.9218 103.016 90.8125 103.135 90.677 103.234C90.5468 103.328 90.401 103.396 90.2395 103.438C90.0781 103.474 89.9166 103.479 89.7552 103.453C89.5937 103.427 89.4427 103.37 89.302 103.281C89.1562 103.198 74.5885 94.7553 50.875 103.38C50.7395 103.432 50.5989 103.453 50.4583 103.453C50.1614 103.458 49.8958 103.359 49.6718 103.172C49.4427 102.979 49.302 102.734 49.25 102.443C49.1979 102.151 49.2447 101.875 49.3958 101.615C49.5468 101.359 49.7604 101.182 50.0416 101.078H50.052Z" fill="black"/>
<path d="M92.6822 74.3699C93.0208 74.4167 93.2968 74.5782 93.4999 74.8542C93.703 75.1303 93.776 75.4376 93.7239 75.7813C93.6666 76.1199 93.4999 76.3855 93.2187 76.5834C92.9374 76.7813 92.6301 76.849 92.2916 76.7865C92.0416 76.7449 66.6718 72.9584 44.9687 96.5417C44.7395 96.7917 44.4583 96.9219 44.1197 96.9376C43.7812 96.9532 43.4895 96.8438 43.2395 96.6147C42.9895 96.3855 42.8593 96.099 42.8489 95.7605C42.8333 95.4219 42.9426 95.1303 43.1718 94.8803C65.7551 70.3386 92.4166 74.323 92.6822 74.3699Z" fill="black"/>
<path d="M20.2395 54.6929C20.0989 54.4012 20.0781 54.0991 20.1822 53.7918C20.2812 53.4793 20.4739 53.2501 20.7603 53.0939C21.0416 52.9376 21.3437 52.9012 21.6562 52.9845C21.9687 53.0679 22.2135 53.2501 22.3853 53.5262C22.526 53.7918 36.4687 80.1304 16.8281 99.1408C16.5833 99.3804 16.2916 99.4897 15.9531 99.4845C15.6145 99.4793 15.3281 99.3543 15.0937 99.1095C14.8593 98.8647 14.7447 98.5731 14.7499 98.2345C14.7603 97.896 14.8853 97.6095 15.1301 97.3751C33.4218 79.672 20.7812 55.7085 20.2395 54.6929Z" fill="black"/>
<path d="M10.625 67.8542C10.8906 67.6511 11.1927 67.573 11.526 67.6199C11.8593 67.6667 12.1302 67.8282 12.3333 68.0938C12.6041 68.448 18.7708 76.8126 14.6041 86.1459C14.3906 86.6303 14.0156 86.8699 13.4895 86.8699C13.3125 86.8699 13.151 86.8334 12.9895 86.7657C12.6875 86.6251 12.4739 86.4011 12.3489 86.0886C12.2291 85.7709 12.2396 85.4636 12.3698 85.1511C15.9323 77.1615 10.4323 69.6511 10.3802 69.5782C10.1718 69.3074 10.0937 69.0053 10.1406 68.6667C10.1875 68.3282 10.3489 68.0574 10.625 67.8542Z" fill="black"/>
<path d="M50.5416 43.5522C50.5416 43.3855 50.5781 43.2292 50.6406 43.0782C50.7031 42.9324 50.7968 42.797 50.9114 42.6876C51.0312 42.573 51.1614 42.4897 51.3177 42.4272C51.4687 42.3699 51.625 42.3438 51.7864 42.349C52.125 42.3542 52.4114 42.4792 52.6458 42.724C52.8802 42.9688 52.9948 43.2605 52.9895 43.5938C52.9635 44.849 52.1979 74.4949 33.9479 94.1876C33.7135 94.422 33.4323 94.5417 33.1041 94.547C32.776 94.5522 32.4895 94.4428 32.25 94.2188C32.0104 93.9949 31.8802 93.7188 31.8593 93.3907C31.8437 93.0626 31.9375 92.7761 32.1562 92.5261C49.7604 73.5261 50.5364 43.8438 50.5416 43.5522Z" fill="black"/>
<path d="M77.1355 23.9427C77.4688 23.9948 77.7397 24.1563 77.9376 24.4271C78.1407 24.6979 78.2136 25.0052 78.1615 25.3385C78.1147 25.6458 73.297 56.1146 53.5886 76.4271C53.474 76.5521 53.3438 76.6458 53.1928 76.7188C53.047 76.7865 52.8855 76.8229 52.724 76.8281C52.5574 76.8333 52.3959 76.8073 52.2397 76.7448C52.0886 76.6875 51.9532 76.599 51.8334 76.4844C51.7136 76.3698 51.6199 76.2344 51.5574 76.0833C51.4949 75.9271 51.4636 75.7708 51.4636 75.6042C51.4636 75.4375 51.4949 75.2761 51.5574 75.125C51.6251 74.974 51.7136 74.8385 51.8334 74.724C70.9897 54.9792 75.7032 25.2656 75.7449 24.9688C75.7917 24.6354 75.9584 24.3698 76.2292 24.1667C76.5001 23.9688 76.8022 23.8906 77.1355 23.9427Z" fill="black"/>
<path d="M79.8073 15.5521C79.3177 15.5521 78.8333 15.5052 78.3542 15.4115C77.875 15.3125 77.4063 15.1719 76.9583 14.9844C76.5052 14.7969 76.0781 14.5678 75.6719 14.2969C75.2604 14.0261 74.8854 13.7136 74.5417 13.3698C74.1979 13.0209 73.8854 12.6459 73.6146 12.2396C73.3437 11.8334 73.1146 11.4011 72.9271 10.9532C72.7396 10.5 72.599 10.0313 72.5052 9.55212C72.4063 9.07296 72.3594 8.58858 72.3594 8.099C72.3594 7.60942 72.4063 7.12504 72.5052 6.64587C72.599 6.16671 72.7396 5.69796 72.9271 5.24483C73.1146 4.79171 73.3437 4.36462 73.6146 3.95837C73.8854 3.55212 74.1979 3.17192 74.5417 2.82817C74.8854 2.48442 75.2604 2.17191 75.6719 1.90108C76.0781 1.63025 76.5052 1.40108 76.9583 1.21358C77.4063 1.02608 77.875 0.885458 78.3542 0.786499C78.8333 0.69275 79.3177 0.645874 79.8073 0.645874C80.2969 0.645874 80.7813 0.69275 81.2604 0.786499C81.7396 0.885458 82.2031 1.02608 82.6562 1.21358C83.1094 1.40108 83.5365 1.63025 83.9427 1.90108C84.349 2.17191 84.724 2.48442 85.0729 2.82817C85.4167 3.17192 85.724 3.55212 85.9948 3.95837C86.2708 4.36462 86.5 4.79171 86.6875 5.24483C86.8698 5.69796 87.0156 6.16671 87.1094 6.64587C87.2031 7.12504 87.25 7.60942 87.25 8.099C87.25 8.58858 87.2031 9.07296 87.1094 9.55212C87.0104 10.0313 86.8698 10.5 86.6823 10.948C86.4948 11.4011 86.2656 11.8334 85.9948 12.2396C85.724 12.6459 85.4167 13.0209 85.0677 13.3646C84.724 13.7136 84.349 14.0209 83.9427 14.2917C83.5365 14.5677 83.1042 14.7969 82.6562 14.9844C82.2031 15.1719 81.7396 15.3125 81.2604 15.4063C80.7813 15.5052 80.2969 15.5521 79.8073 15.5521ZM79.8073 3.09379C79.1406 3.09379 78.5052 3.21879 77.8906 3.474C77.2813 3.72921 76.7396 4.08858 76.2708 4.55733C75.8021 5.03129 75.4427 5.56775 75.1875 6.18233C74.9323 6.79692 74.8073 7.43754 74.8073 8.099C74.8073 8.76046 74.9323 9.40108 75.1875 10.0157C75.4427 10.625 75.8021 11.1667 76.2708 11.6355C76.7396 12.1094 77.2813 12.4688 77.8906 12.724C78.5052 12.9792 79.1406 13.1042 79.8073 13.1042C80.4687 13.1042 81.1094 12.9792 81.7188 12.724C82.3333 12.4688 82.875 12.1094 83.3438 11.6355C83.8125 11.1667 84.1719 10.625 84.4271 10.0157C84.6771 9.40108 84.8073 8.76046 84.8073 8.099C84.8073 7.43754 84.6771 6.79692 84.4219 6.18233C84.1719 5.57296 83.8073 5.03129 83.3385 4.56254C82.8698 4.09379 82.3281 3.72921 81.7188 3.474C81.1042 3.224 80.4687 3.09379 79.8073 3.09379Z" fill="black"/>
<path d="M51.7657 36.0782C51.3699 36.0782 50.974 36.0365 50.5834 35.9584C50.1928 35.8855 49.8126 35.7657 49.4428 35.6147C49.0782 35.4636 48.7292 35.2761 48.3959 35.0522C48.0626 34.8334 47.7605 34.5782 47.4792 34.297C47.1928 34.0157 46.9428 33.7084 46.724 33.3803C46.5001 33.047 46.3126 32.698 46.1615 32.3282C46.0105 31.9584 45.8959 31.5782 45.8178 31.1876C45.7397 30.797 45.698 30.4011 45.698 30.0053C45.698 29.6042 45.7397 29.2084 45.8178 28.8178C45.8959 28.4272 46.0105 28.047 46.1615 27.6772C46.3126 27.3126 46.5001 26.9636 46.724 26.6303C46.9428 26.297 47.1928 25.9897 47.4792 25.7084C47.7605 25.4272 48.0626 25.1772 48.3959 24.9532C48.7292 24.7345 49.0782 24.547 49.4428 24.3907C49.8126 24.2397 50.1928 24.1251 50.5834 24.047C50.974 23.9688 51.3699 23.9324 51.7657 23.9324C52.1667 23.9324 52.5574 23.9688 52.948 24.047C53.3386 24.1251 53.7188 24.2397 54.0886 24.3907C54.4584 24.547 54.8074 24.7345 55.1355 24.9532C55.4688 25.1772 55.7761 25.4272 56.0574 25.7084C56.3386 25.9897 56.5886 26.297 56.8126 26.6303C57.0313 26.9636 57.2188 27.3126 57.3699 27.6772C57.5261 28.047 57.6407 28.4272 57.7188 28.8178C57.797 29.2084 57.8334 29.6042 57.8334 30.0053C57.8334 30.4011 57.7917 30.797 57.7136 31.1876C57.6355 31.5782 57.5209 31.9584 57.3699 32.3282C57.2188 32.6928 57.0313 33.047 56.8074 33.3751C56.5886 33.7084 56.3386 34.0157 56.0522 34.297C55.7709 34.5782 55.4688 34.8282 55.1355 35.0522C54.8022 35.2709 54.4532 35.4584 54.0886 35.6147C53.7188 35.7657 53.3386 35.8803 52.948 35.9584C52.5574 36.0365 52.1667 36.0782 51.7657 36.0782ZM51.7657 26.3803C51.2865 26.3803 50.823 26.4688 50.3803 26.6563C49.9376 26.8386 49.5417 27.099 49.2032 27.4428C48.8647 27.7813 48.599 28.172 48.4167 28.6147C48.2345 29.0626 48.1407 29.5261 48.1407 30.0053C48.1407 30.4845 48.2345 30.948 48.4167 31.3959C48.599 31.8386 48.8595 32.2292 49.2032 32.573C49.5417 32.9115 49.9324 33.172 50.3803 33.3595C50.823 33.5417 51.2865 33.6355 51.7657 33.6355C52.2449 33.6355 52.7084 33.5417 53.1511 33.3595C53.5938 33.172 53.9897 32.9115 54.3282 32.573C54.6667 32.2292 54.9272 31.8386 55.1147 31.3907C55.297 30.948 55.3907 30.4845 55.3855 30.0053C55.3855 29.5209 55.297 29.0626 55.1095 28.6199C54.9272 28.172 54.6667 27.7813 54.3282 27.4428C53.9845 27.1042 53.5938 26.8386 53.1511 26.6563C52.7084 26.474 52.2449 26.3803 51.7657 26.3803Z" fill="black"/>
<path d="M99.1511 78.7865C99.1511 78.3907 99.1928 77.9948 99.2709 77.599C99.3438 77.2084 99.4636 76.8282 99.6147 76.4636C99.7657 76.0938 99.9532 75.7448 100.172 75.4115C100.396 75.0782 100.646 74.7709 100.927 74.4896C101.208 74.2084 101.516 73.9532 101.849 73.7344C102.177 73.5105 102.531 73.323 102.896 73.1719C103.266 73.0209 103.646 72.9011 104.037 72.823C104.427 72.7448 104.823 72.7084 105.219 72.7084C105.62 72.7084 106.016 72.7448 106.406 72.823C106.797 72.9011 107.177 73.0157 107.542 73.1719C107.912 73.323 108.26 73.5105 108.594 73.7292C108.927 73.9532 109.229 74.2032 109.516 74.4844C109.797 74.7709 110.047 75.0782 110.271 75.4063C110.49 75.7396 110.677 76.0886 110.828 76.4584C110.984 76.8282 111.099 77.2084 111.177 77.599C111.255 77.9896 111.292 78.3855 111.292 78.7813C111.292 79.1823 111.255 79.5782 111.177 79.9688C111.099 80.3594 110.984 80.7396 110.828 81.1094C110.677 81.4792 110.49 81.8282 110.271 82.1615C110.047 82.4896 109.797 82.7969 109.516 83.0834C109.234 83.3646 108.927 83.6146 108.594 83.8386C108.266 84.0573 107.912 84.2448 107.547 84.3959C107.177 84.5521 106.797 84.6667 106.406 84.7448C106.016 84.823 105.62 84.8594 105.224 84.8594C104.823 84.8594 104.427 84.823 104.037 84.7448C103.646 84.6667 103.271 84.5521 102.901 84.3959C102.531 84.2448 102.182 84.0573 101.854 83.8334C101.521 83.6146 101.214 83.3646 100.932 83.0782C100.651 82.7969 100.401 82.4896 100.177 82.1615C99.9584 81.8282 99.7709 81.4792 99.6147 81.1094C99.4636 80.7448 99.349 80.3646 99.2709 79.974C99.1928 79.5834 99.1511 79.1875 99.1511 78.7865ZM108.844 78.7865C108.844 78.3073 108.75 77.8438 108.568 77.3959C108.385 76.9532 108.125 76.5625 107.781 76.2188C107.443 75.8802 107.052 75.6198 106.609 75.4323C106.162 75.25 105.703 75.1563 105.219 75.1563C104.74 75.1563 104.276 75.25 103.833 75.4323C103.391 75.6146 102.995 75.8802 102.656 76.2188C102.318 76.5573 102.057 76.9532 101.87 77.3959C101.688 77.8438 101.594 78.3021 101.594 78.7865C101.594 79.2657 101.688 79.7292 101.87 80.1719C102.057 80.6198 102.318 81.0105 102.656 81.349C103 81.6927 103.391 81.9532 103.833 82.1355C104.281 82.323 104.74 82.4115 105.224 82.4115C105.703 82.4115 106.162 82.3177 106.609 82.1355C107.052 81.948 107.443 81.6875 107.781 81.349C108.12 81.0105 108.38 80.6198 108.568 80.1719C108.75 79.7292 108.844 79.2657 108.844 78.7865Z" fill="black"/>
<mask id="mask0_8_6923" style="mask-type:luminance" maskUnits="userSpaceOnUse" x="89" y="97" width="18" height="19">
<path d="M89.3333 97.5782H106.667V115.839H89.3333V97.5782Z" fill="white"/>
</mask>
<g mask="url(#mask0_8_6923)">
<path d="M90.7135 108.177L96.7187 106.375L95.453 100.229C95.3905 99.9012 95.453 99.5991 95.6405 99.323C95.828 99.047 96.0832 98.8751 96.4062 98.8074C96.7343 98.7397 97.0364 98.797 97.3124 98.9793C97.5937 99.1564 97.7707 99.4116 97.8437 99.7345L99.0676 105.672L104.87 103.927C105.193 103.833 105.505 103.865 105.802 104.021C106.099 104.182 106.297 104.427 106.396 104.75C106.489 105.073 106.458 105.386 106.297 105.682C106.141 105.979 105.896 106.177 105.573 106.276L99.5676 108.078L100.833 114.224C100.901 114.557 100.844 114.865 100.656 115.146C100.474 115.427 100.213 115.604 99.8801 115.672C99.802 115.688 99.7187 115.698 99.6353 115.698C99.3437 115.698 99.0885 115.604 98.8645 115.422C98.6405 115.24 98.4947 115.005 98.4374 114.719L97.2135 108.787L91.4166 110.531C91.0885 110.63 90.7812 110.594 90.4843 110.438C90.1874 110.276 89.9895 110.031 89.8905 109.708C89.7916 109.386 89.828 109.073 89.9843 108.776C90.1457 108.479 90.3853 108.281 90.7135 108.182V108.177Z" fill="black"/>
</g>
<mask id="mask1_8_6923" style="mask-type:luminance" maskUnits="userSpaceOnUse" x="77" y="29" width="39" height="41">
<path d="M77.3333 29.5782H115.078V69.5782H77.3333V29.5782Z" fill="white"/>
</mask>
<g mask="url(#mask1_8_6923)">
<path d="M94.0833 68.1823C93.8385 68.4531 93.5364 68.5937 93.1718 68.5937C93.0624 68.5937 92.9531 68.5781 92.8437 68.5469C92.3541 68.4114 92.0624 68.0937 91.9687 67.5937L89.7239 55.7552L78.7135 50.9219C78.2499 50.7135 78.0103 50.3594 77.9843 49.8541C77.9635 49.3489 78.177 48.9687 78.6197 48.7291L89.1666 42.9219L90.3801 30.9375C90.4322 30.4323 90.6926 30.0937 91.1666 29.9166C91.6406 29.7396 92.0624 29.8229 92.4322 30.1719L101.198 38.4219L112.953 35.8854C113.448 35.776 113.854 35.9219 114.172 36.3177C114.484 36.7135 114.536 37.1458 114.318 37.6041L109.187 48.4948L115.245 58.8906C115.5 59.3281 115.484 59.7604 115.203 60.1823C114.927 60.6094 114.531 60.7864 114.031 60.7239L102.099 59.2031L94.0833 68.1823ZM106.75 49.1614C106.531 48.7916 106.516 48.4114 106.703 48.026L111.052 38.7916L101.088 40.9427C100.667 41.0312 100.302 40.9271 99.9895 40.6354L92.5624 33.651L91.5416 43.8073C91.4999 44.2344 91.2916 44.5521 90.9166 44.7604L81.9791 49.6666L91.3072 53.7812C91.6978 53.9583 91.9374 54.2552 92.0156 54.6771L93.9166 64.7031L100.703 57.0989C100.948 56.8229 101.25 56.6875 101.615 56.6875C101.667 56.6875 101.719 56.6875 101.766 56.6875L111.88 57.9791L106.75 49.1614Z" fill="black"/>
</g>
<mask id="mask2_8_6923" style="mask-type:luminance" maskUnits="userSpaceOnUse" x="0" y="25" width="30" height="32">
<path d="M0.5625 25.5782H29.3333V56.2449H0.5625V25.5782Z" fill="white"/>
</mask>
<g mask="url(#mask2_8_6923)">
<path d="M1.15623 41.5471L8.13019 36.646L8.05727 28.1148C8.05206 27.6044 8.27602 27.2398 8.72915 27.0106C9.18227 26.7814 9.60935 26.8231 10.0156 27.1252L16.8281 32.2606L24.9114 29.5575C25.3958 29.396 25.8125 29.495 26.1666 29.8544C26.526 30.2189 26.6198 30.6356 26.4531 31.1148L23.6823 39.1877L28.75 46.0523C29.0573 46.4585 29.0885 46.8856 28.8541 47.3387C28.6146 47.771 28.2448 47.995 27.75 48.0002L19.2239 47.8544L14.2708 54.8023C14.026 55.146 13.6927 55.3127 13.276 55.3127C13.2083 55.3127 13.1458 55.3075 13.0781 55.2971C12.5781 55.2189 12.2552 54.9325 12.1041 54.4481L9.60935 46.2867L1.47915 43.7137C0.999979 43.5627 0.718728 43.2346 0.640604 42.7346C0.562479 42.2346 0.734354 41.8387 1.14581 41.5471H1.15623ZM10.9687 44.146C11.3802 44.271 11.6458 44.5419 11.7708 44.9481L13.7291 51.3544L17.6198 45.9012C17.8594 45.5627 18.1927 45.3908 18.6146 45.3908H18.6354L25.3229 45.5054L21.3437 40.12C21.0937 39.7762 21.0364 39.4012 21.1719 38.995L23.3385 32.6617L16.9896 34.7814C16.5833 34.9221 16.2083 34.8596 15.8698 34.5992L10.5208 30.5731L10.5781 37.271C10.5833 37.7033 10.4062 38.0367 10.0573 38.2867L4.5781 42.1252L10.9687 44.146Z" fill="black"/>
</g>
</svg>
