<svg width="37" height="45" viewBox="0 0 37 45" fill="none" xmlns="http://www.w3.org/2000/svg">
<mask id="mask0_8_6771" style="mask-type:luminance" maskUnits="userSpaceOnUse" x="0" y="0" width="37" height="45">
<path d="M0.104248 0.447998H36.073V44.4115H0.104248V0.447998Z" fill="white"/>
</mask>
<g mask="url(#mask0_8_6771)">
<path d="M31.922 34.2292C29.7761 33.3699 26.8595 32.724 23.6199 32.3855C27.8126 26.7292 32.4532 19.5209 32.4532 14.8074C32.4532 6.89071 26.0105 0.447998 18.0938 0.447998C10.1772 0.447998 3.73446 6.89071 3.73446 14.8074C3.73446 17.7136 5.55737 21.9792 9.16154 27.4845C10.2657 29.172 11.4428 30.8386 12.5834 32.3803C9.33862 32.724 6.42196 33.3699 4.27092 34.224C0.838623 35.5938 0.119873 37.1667 0.119873 38.2397C0.119873 42.2292 9.38029 44.3803 18.0938 44.3803C26.8074 44.3803 36.0678 42.2292 36.0678 38.2397C36.0678 37.1667 35.349 35.5938 31.922 34.2292ZM5.10425 14.8074C5.10425 7.64591 10.9324 1.81779 18.0938 1.81779C25.2553 1.81779 31.0782 7.64591 31.0782 14.8074C31.0782 17.4688 29.3542 21.4584 25.948 26.672C23.2501 30.8022 20.1147 34.7501 18.0938 37.2657C14.0678 32.2345 5.10425 20.797 5.10425 14.8074ZM17.5574 38.7917C17.6876 38.9532 17.8855 39.0522 18.0938 39.0522C18.3022 39.0522 18.5001 38.9532 18.6303 38.7917L18.8334 38.5417C19.2709 37.9949 19.7761 37.3647 20.323 36.6772C23.7345 36.9636 25.099 37.8022 25.2084 38.0834C25.1563 38.2188 24.698 38.6407 23.2292 39.0261C21.8386 39.3855 20.0157 39.5886 18.0938 39.5886C16.172 39.5886 14.349 39.3855 12.9584 39.0261C11.4897 38.6407 11.0313 38.2188 10.974 38.0834C11.0886 37.8022 12.4532 36.9636 15.8699 36.6772C16.5105 37.4897 17.0834 38.2032 17.5574 38.7917ZM30.1095 41.4428C26.9115 42.4532 22.6407 43.0053 18.0938 43.0053C13.5417 43.0053 9.27612 42.4532 6.07821 41.4428C3.20841 40.5365 1.49487 39.3386 1.49487 38.2397C1.49487 36.4897 5.99487 34.3282 13.547 33.6667C14.0001 34.2709 14.448 34.8542 14.8699 35.4011C12.8074 35.6615 9.59904 36.3438 9.59904 38.0834C9.59904 40.3542 14.9376 40.9584 18.0938 40.9584C21.2501 40.9584 26.5886 40.3542 26.5886 38.0834C26.5886 36.3438 23.3855 35.6615 21.323 35.4011C21.7501 34.8542 22.198 34.2709 22.6563 33.672C30.198 34.3282 34.6928 36.4949 34.6928 38.2397C34.6928 39.3386 32.9792 40.5365 30.1095 41.4428ZM25.4063 14.7917C25.4063 10.7605 22.1251 7.47925 18.0938 7.47925C14.0626 7.47925 10.7813 10.7605 10.7813 14.7917C10.7813 18.823 14.0626 22.1042 18.0938 22.1042C22.1251 22.1042 25.4063 18.823 25.4063 14.7917ZM18.0938 20.7292C14.8178 20.7292 12.1563 18.0678 12.1563 14.7917C12.1563 11.5157 14.8178 8.85425 18.0938 8.85425C21.3699 8.85425 24.0313 11.5157 24.0313 14.7917C24.0313 18.0678 21.3699 20.7292 18.0938 20.7292Z" fill="white"/>
</g>
</svg>
