<svg width="116" height="116" viewBox="0 0 116 116" fill="none" xmlns="http://www.w3.org/2000/svg">
<path d="M65.7657 101.078C40.9689 92.0574 25.8751 100.813 25.2605 101.177C25.1199 101.26 24.9949 101.365 24.8959 101.495C24.7918 101.625 24.7241 101.771 24.6824 101.932C24.6355 102.089 24.6251 102.25 24.6512 102.417C24.672 102.578 24.7241 102.729 24.8126 102.875C24.8959 103.016 25.0053 103.135 25.1355 103.234C25.271 103.328 25.4168 103.396 25.5782 103.438C25.7397 103.474 25.9012 103.479 26.0626 103.453C26.2241 103.427 26.3751 103.37 26.5157 103.281C26.6616 103.198 41.2293 94.7553 64.9428 103.38C65.0782 103.432 65.2137 103.453 65.3595 103.453C65.6564 103.458 65.9168 103.359 66.146 103.172C66.3751 102.979 66.5157 102.734 66.5678 102.443C66.6199 102.151 66.5678 101.875 66.422 101.615C66.271 101.359 66.0574 101.182 65.7762 101.078H65.7657Z" fill="black"/>
<path d="M23.1354 74.3699C22.7916 74.4167 22.5208 74.5782 22.3177 74.8542C22.1146 75.1303 22.0364 75.4376 22.0937 75.7813C22.151 76.1199 22.3177 76.3855 22.5989 76.5834C22.8802 76.7813 23.1875 76.849 23.526 76.7865C23.776 76.7449 49.1406 72.9584 70.8437 96.5417C71.0729 96.7917 71.3593 96.9219 71.6979 96.9376C72.0312 96.9532 72.3281 96.8438 72.5781 96.6147C72.8229 96.3855 72.9583 96.099 72.9687 95.7605C72.9843 95.4219 72.875 95.1303 72.6458 94.8803C50.0573 70.3386 23.401 74.323 23.1354 74.3699Z" fill="black"/>
<path d="M95.5782 54.6929C95.7189 54.4012 95.7345 54.0991 95.6355 53.7918C95.5366 53.4793 95.3439 53.2501 95.0574 53.0939C94.7709 52.9376 94.4741 52.9012 94.1564 52.9845C93.8439 53.0679 93.6043 53.2501 93.4324 53.5262C93.2918 53.7918 79.3491 80.1304 98.9897 99.1408C99.2345 99.3804 99.5262 99.4897 99.8647 99.4845C100.203 99.4793 100.49 99.3543 100.724 99.1095C100.958 98.8647 101.073 98.5731 101.063 98.2345C101.057 97.896 100.932 97.6095 100.688 97.3751C82.3959 79.672 95.0314 55.7085 95.5782 54.6929Z" fill="black"/>
<path d="M105.193 67.8542C104.922 67.6511 104.62 67.573 104.286 67.6199C103.953 67.6667 103.688 67.8282 103.484 68.0938C103.214 68.448 97.0469 76.8126 101.208 86.1459C101.427 86.6303 101.797 86.8699 102.328 86.8699C102.5 86.8699 102.667 86.8334 102.823 86.7657C103.13 86.6251 103.344 86.4011 103.464 86.0886C103.583 85.7709 103.578 85.4636 103.443 85.1511C99.8854 77.1615 105.38 69.6511 105.438 69.5782C105.646 69.3074 105.724 69.0053 105.677 68.6667C105.63 68.3282 105.469 68.0574 105.193 67.8542Z" fill="black"/>
<path d="M65.2708 43.5522C65.2708 43.3855 65.2395 43.2292 65.177 43.0782C65.1145 42.9324 65.0208 42.797 64.9062 42.6876C64.7864 42.573 64.651 42.4897 64.4999 42.4272C64.3489 42.3699 64.1926 42.3438 64.026 42.349C63.6874 42.3542 63.4062 42.4792 63.1666 42.724C62.9322 42.9688 62.8176 43.2605 62.828 43.5938C62.8489 44.849 63.6197 74.4949 81.8697 94.1876C82.1041 94.422 82.3801 94.5417 82.7135 94.547C83.0416 94.5522 83.328 94.4428 83.5676 94.2188C83.8072 93.9949 83.9374 93.7188 83.9583 93.3907C83.9739 93.0626 83.8749 92.7761 83.6614 92.5261C66.0572 73.5261 65.276 43.8438 65.2708 43.5522Z" fill="black"/>
<path d="M38.677 23.9427C38.3437 23.9948 38.078 24.1563 37.8749 24.4271C37.677 24.6979 37.6041 25.0052 37.6562 25.3385C37.6978 25.6458 42.5155 56.1146 62.2291 76.4271C62.3385 76.5521 62.4687 76.6458 62.6197 76.7188C62.7708 76.7865 62.927 76.8229 63.0937 76.8281C63.2603 76.8333 63.4218 76.8073 63.5728 76.7448C63.7291 76.6875 63.8645 76.599 63.9843 76.4844C64.1041 76.3698 64.1926 76.2344 64.2603 76.0833C64.3228 75.9271 64.3541 75.7708 64.3541 75.6042C64.3541 75.4375 64.3228 75.2761 64.2551 75.125C64.1926 74.974 64.0989 74.8385 63.9843 74.724C44.828 54.9792 40.1093 25.2656 40.0728 24.9688C40.0208 24.6354 39.8593 24.3698 39.5885 24.1667C39.3176 23.9688 39.0103 23.8906 38.677 23.9427Z" fill="black"/>
<path d="M36.0104 15.5521C36.5 15.5521 36.9844 15.5052 37.4635 15.4115C37.9427 15.3125 38.4063 15.1719 38.8594 14.9844C39.3125 14.7969 39.7396 14.5678 40.1458 14.2969C40.5521 14.0261 40.9271 13.7136 41.276 13.3698C41.6198 13.0209 41.9271 12.6459 42.2031 12.2396C42.474 11.8334 42.7031 11.4011 42.8906 10.9532C43.0781 10.5 43.2188 10.0313 43.3125 9.55212C43.4063 9.07296 43.4531 8.58858 43.4531 8.099C43.4531 7.60942 43.4063 7.12504 43.3125 6.64587C43.2188 6.16671 43.0781 5.69796 42.8906 5.24483C42.7031 4.79171 42.474 4.36462 42.2031 3.95837C41.9271 3.55212 41.6198 3.17192 41.276 2.82817C40.9271 2.48442 40.5521 2.17191 40.1458 1.90108C39.7396 1.63025 39.3125 1.40108 38.8594 1.21358C38.4063 1.02608 37.9427 0.885458 37.4635 0.786499C36.9844 0.69275 36.5 0.645874 36.0104 0.645874C35.5208 0.645874 35.0365 0.69275 34.5573 0.786499C34.0781 0.885458 33.6146 1.02608 33.1615 1.21358C32.7083 1.40108 32.2813 1.63025 31.875 1.90108C31.4687 2.17191 31.0885 2.48442 30.7448 2.82817C30.401 3.17192 30.0885 3.55212 29.8177 3.95837C29.5469 4.36462 29.3177 4.79171 29.1302 5.24483C28.9427 5.69796 28.8021 6.16671 28.7083 6.64587C28.6146 7.12504 28.5625 7.60942 28.5625 8.099C28.5625 8.58858 28.6146 9.07296 28.7083 9.55212C28.8021 10.0313 28.9479 10.5 29.1354 10.948C29.3229 11.4011 29.5521 11.8334 29.8229 12.2396C30.0937 12.6459 30.401 13.0209 30.75 13.3646C31.0937 13.7136 31.4687 14.0209 31.875 14.2917C32.2813 14.5677 32.7083 14.7969 33.1615 14.9844C33.6146 15.1719 34.0781 15.3125 34.5573 15.4063C35.0365 15.5052 35.5208 15.5521 36.0104 15.5521ZM36.0104 3.09379C36.6719 3.09379 37.3125 3.21879 37.9219 3.474C38.5365 3.72921 39.0781 4.08858 39.5469 4.55733C40.0156 5.03129 40.375 5.56775 40.6302 6.18233C40.8802 6.79692 41.0104 7.43754 41.0104 8.099C41.0104 8.76046 40.8802 9.40108 40.6302 10.0157C40.375 10.625 40.0156 11.1667 39.5469 11.6355C39.0781 12.1094 38.5365 12.4688 37.9219 12.724C37.3125 12.9792 36.6719 13.1042 36.0104 13.1042C35.349 13.1042 34.7083 12.9792 34.099 12.724C33.4844 12.4688 32.9427 12.1094 32.474 11.6355C32.0052 11.1667 31.6458 10.625 31.3906 10.0157C31.1354 9.40108 31.0104 8.76046 31.0104 8.099C31.0104 7.43754 31.1406 6.79692 31.3906 6.18233C31.6458 5.57296 32.0052 5.03129 32.474 4.56254C32.9427 4.09379 33.4844 3.72921 34.099 3.474C34.7083 3.224 35.349 3.09379 36.0104 3.09379Z" fill="black"/>
<path d="M64.0469 36.0782C64.4479 36.0782 64.8438 36.0365 65.2344 35.9584C65.625 35.8855 66.0052 35.7657 66.3698 35.6147C66.7396 35.4636 67.0885 35.2761 67.4219 35.0522C67.75 34.8334 68.0573 34.5782 68.3385 34.297C68.6198 34.0157 68.875 33.7084 69.0938 33.3803C69.3177 33.047 69.5 32.698 69.6562 32.3282C69.8073 31.9584 69.9219 31.5782 70 31.1876C70.0781 30.797 70.1146 30.4011 70.1146 30.0053C70.1146 29.6042 70.0781 29.2084 70 28.8178C69.9219 28.4272 69.8073 28.047 69.6562 27.6772C69.5 27.3126 69.3177 26.9636 69.0938 26.6303C68.875 26.297 68.6198 25.9897 68.3385 25.7084C68.0573 25.4272 67.75 25.1772 67.4219 24.9532C67.0885 24.7345 66.7396 24.547 66.3698 24.3907C66.0052 24.2397 65.625 24.1251 65.2344 24.047C64.8438 23.9688 64.4479 23.9324 64.0469 23.9324C63.651 23.9324 63.2552 23.9688 62.8646 24.047C62.474 24.1251 62.0937 24.2397 61.7292 24.3907C61.3594 24.547 61.0104 24.7345 60.6771 24.9532C60.349 25.1772 60.0417 25.4272 59.7604 25.7084C59.4792 25.9897 59.224 26.297 59.0052 26.6303C58.7813 26.9636 58.599 27.3126 58.4427 27.6772C58.2917 28.047 58.1771 28.4272 58.099 28.8178C58.0208 29.2084 57.9844 29.6042 57.9844 30.0053C57.9844 30.4011 58.0208 30.797 58.099 31.1876C58.1771 31.5782 58.2917 31.9584 58.4479 32.3282C58.599 32.6928 58.7865 33.047 59.0052 33.3751C59.2292 33.7084 59.4792 34.0157 59.7604 34.297C60.0417 34.5782 60.349 34.8282 60.6823 35.0522C61.0104 35.2709 61.3594 35.4584 61.7292 35.6147C62.099 35.7657 62.474 35.8803 62.8646 35.9584C63.2552 36.0365 63.651 36.0782 64.0469 36.0782ZM64.0469 26.3803C64.5313 26.3803 64.9948 26.4688 65.4375 26.6563C65.8802 26.8386 66.2708 27.099 66.6146 27.4428C66.9531 27.7813 67.2135 28.172 67.401 28.6147C67.5833 29.0626 67.6771 29.5261 67.6771 30.0053C67.6771 30.4845 67.5833 30.948 67.401 31.3959C67.2135 31.8386 66.9531 32.2292 66.6146 32.573C66.276 32.9115 65.8802 33.172 65.4375 33.3595C64.9948 33.5417 64.5313 33.6355 64.0521 33.6355C63.5729 33.6355 63.1094 33.5417 62.6615 33.3595C62.2187 33.172 61.8281 32.9115 61.4896 32.573C61.151 32.2292 60.8854 31.8386 60.7031 31.3907C60.5208 30.948 60.4271 30.4845 60.4271 30.0053C60.4271 29.5209 60.5208 29.0626 60.7031 28.6199C60.8906 28.172 61.151 27.7813 61.4896 27.4428C61.8281 27.1042 62.2187 26.8386 62.6667 26.6563C63.1094 26.474 63.5677 26.3803 64.0469 26.3803Z" fill="black"/>
<path d="M16.6615 78.7865C16.6615 78.3907 16.6251 77.9948 16.547 77.599C16.4688 77.2084 16.3542 76.8282 16.2032 76.4636C16.0522 76.0938 15.8647 75.7448 15.6407 75.4115C15.422 75.0782 15.1667 74.7709 14.8855 74.4896C14.6042 74.2084 14.297 73.9532 13.9688 73.7344C13.6355 73.5105 13.2865 73.323 12.9167 73.1719C12.5522 73.0209 12.172 72.9011 11.7813 72.823C11.3907 72.7448 10.9949 72.7084 10.5938 72.7084C10.198 72.7084 9.80216 72.7448 9.41154 72.823C9.02091 72.9011 8.64071 73.0157 8.27091 73.1719C7.90633 73.323 7.55216 73.5105 7.22404 73.7292C6.89071 73.9532 6.58342 74.2032 6.30216 74.4844C6.02092 74.7709 5.77092 75.0782 5.54696 75.4063C5.32821 75.7396 5.14071 76.0886 4.98446 76.4584C4.83342 76.8282 4.71883 77.2084 4.64071 77.599C4.56258 77.9896 4.52612 78.3855 4.52612 78.7813C4.52612 79.1823 4.56258 79.5782 4.64071 79.9688C4.71883 80.3594 4.83342 80.7396 4.98446 81.1094C5.14071 81.4792 5.323 81.8282 5.54696 82.1615C5.77092 82.4896 6.02092 82.7969 6.30216 83.0834C6.58342 83.3646 6.89071 83.6146 7.22404 83.8386C7.55216 84.0573 7.90112 84.2448 8.27091 84.3959C8.64071 84.5521 9.02091 84.6667 9.41154 84.7448C9.80216 84.823 10.198 84.8594 10.5938 84.8594C10.9949 84.8594 11.3855 84.823 11.7761 84.7448C12.1667 84.6667 12.547 84.5521 12.9167 84.3959C13.2813 84.2448 13.6303 84.0573 13.9636 83.8334C14.297 83.6146 14.6042 83.3646 14.8855 83.0782C15.1667 82.7969 15.4167 82.4896 15.6407 82.1615C15.8595 81.8282 16.047 81.4792 16.198 81.1094C16.3542 80.7448 16.4688 80.3646 16.547 79.974C16.6251 79.5834 16.6615 79.1875 16.6615 78.7865ZM6.97404 78.7865C6.97404 78.3073 7.06258 77.8438 7.25008 77.3959C7.43237 76.9532 7.69279 76.5625 8.03133 76.2188C8.37508 75.8802 8.76571 75.6198 9.20842 75.4323C9.65112 75.25 10.1147 75.1563 10.5938 75.1563C11.0782 75.1563 11.5365 75.25 11.9845 75.4323C12.4272 75.6146 12.8178 75.8802 13.1615 76.2188C13.5001 76.5573 13.7605 76.9532 13.9428 77.3959C14.1303 77.8438 14.2188 78.3021 14.2188 78.7865C14.2188 79.2657 14.1303 79.7292 13.9428 80.1719C13.7605 80.6198 13.5001 81.0105 13.1563 81.349C12.8178 81.6927 12.4272 81.9532 11.9792 82.1355C11.5365 82.323 11.073 82.4115 10.5938 82.4115C10.1147 82.4115 9.65112 82.3177 9.20842 82.1355C8.76571 81.948 8.37508 81.6875 8.03654 81.349C7.698 81.0105 7.43237 80.6198 7.25008 80.1719C7.06779 79.7292 6.97404 79.2657 6.97404 78.7865Z" fill="black"/>
<mask id="mask0_8_6924" style="mask-type:luminance" maskUnits="userSpaceOnUse" x="8" y="97" width="19" height="19">
<path d="M8.66675 97.5782H26.0001V115.839H8.66675V97.5782Z" fill="white"/>
</mask>
<g mask="url(#mask0_8_6924)">
<path d="M25.1042 108.177L19.099 106.375L20.3646 100.229C20.4271 99.9012 20.3594 99.5991 20.1771 99.323C19.9896 99.047 19.7344 98.8751 19.4063 98.8074C19.0833 98.7397 18.7813 98.797 18.5 98.9793C18.224 99.1564 18.0469 99.4116 17.9688 99.7345L16.7448 105.672L10.9427 103.927C10.6198 103.833 10.3125 103.865 10.0156 104.021C9.71355 104.182 9.52084 104.427 9.42188 104.75C9.32293 105.073 9.35418 105.386 9.51563 105.682C9.67709 105.979 9.91668 106.177 10.2448 106.276L16.25 108.078L14.9844 114.224C14.9115 114.557 14.974 114.865 15.1563 115.146C15.3438 115.427 15.6042 115.604 15.9323 115.672C16.0156 115.688 16.099 115.698 16.1823 115.698C16.4688 115.698 16.7292 115.604 16.9531 115.422C17.1771 115.24 17.3177 115.005 17.375 114.719L18.599 108.787L24.4011 110.531C24.724 110.63 25.0365 110.594 25.3333 110.438C25.6302 110.276 25.8281 110.031 25.9271 109.708C26.0208 109.386 25.9896 109.073 25.8281 108.776C25.6719 108.479 25.4271 108.281 25.1042 108.182V108.177Z" fill="black"/>
</g>
<mask id="mask1_8_6924" style="mask-type:luminance" maskUnits="userSpaceOnUse" x="0" y="29" width="38" height="41">
<path d="M0.348877 29.5782H37.9999V69.5782H0.348877V29.5782Z" fill="white"/>
</mask>
<g mask="url(#mask1_8_6924)">
<path d="M21.7343 68.1823C21.9739 68.4531 22.2812 68.5937 22.6458 68.5937C22.7551 68.5937 22.8645 68.5781 22.9739 68.5469C23.4635 68.4114 23.7551 68.0937 23.8489 67.5937L26.0937 55.7552L37.1041 50.9219C37.5676 50.7135 37.8072 50.3594 37.8281 49.8541C37.8489 49.3489 37.6406 48.9687 37.1979 48.7291L26.651 42.9219L25.4374 30.9375C25.3854 30.4323 25.1249 30.0937 24.6458 29.9166C24.1718 29.7396 23.7499 29.8229 23.3801 30.1719L14.6145 38.4219L2.85931 35.8854C2.36452 35.776 1.95827 35.9219 1.64577 36.3177C1.32806 36.7135 1.28119 37.1458 1.49994 37.6041L6.62494 48.4948L0.572853 58.8906C0.317644 59.3281 0.328062 59.7604 0.609312 60.1823C0.890562 60.6094 1.28119 60.7864 1.78639 60.7239L13.7187 59.2031L21.7343 68.1823ZM9.06244 49.1614C9.28119 48.7916 9.29681 48.4114 9.11452 48.026L4.76556 38.7916L14.7291 40.9427C15.151 41.0312 15.5156 40.9271 15.8281 40.6354L23.2551 33.651L24.2708 43.8073C24.3176 44.2344 24.526 44.5521 24.901 44.7604L33.8385 49.6666L24.5104 53.7812C24.1145 53.9583 23.8801 54.2552 23.802 54.6771L21.901 64.7031L15.1145 57.0989C14.8697 56.8229 14.5676 56.6875 14.2031 56.6875C14.151 56.6875 14.0989 56.6875 14.0468 56.6875L3.93223 57.9791L9.06244 49.1614Z" fill="black"/>
</g>
<mask id="mask2_8_6924" style="mask-type:luminance" maskUnits="userSpaceOnUse" x="86" y="25" width="30" height="32">
<path d="M86 25.5782H115.25V56.2449H86V25.5782Z" fill="white"/>
</mask>
<g mask="url(#mask2_8_6924)">
<path d="M114.662 41.5471L107.688 36.646L107.755 28.1148C107.761 27.6044 107.537 27.2398 107.083 27.0106C106.636 26.7814 106.203 26.8231 105.802 27.1252L98.9897 32.2606L90.9012 29.5575C90.422 29.396 90.0053 29.495 89.646 29.8544C89.2918 30.2189 89.198 30.6356 89.3595 31.1148L92.1303 39.1877L87.0626 46.0523C86.7605 46.4585 86.7241 46.8856 86.9585 47.3387C87.2032 47.771 87.573 47.995 88.0678 48.0002L96.5939 47.8544L101.547 54.8023C101.792 55.146 102.12 55.3127 102.542 55.3127C102.604 55.3127 102.672 55.3075 102.734 55.2971C103.24 55.2189 103.563 54.9325 103.708 54.4481L106.203 46.2867L114.333 43.7137C114.818 43.5627 115.099 43.2346 115.177 42.7346C115.25 42.2346 115.083 41.8387 114.672 41.5471H114.662ZM104.849 44.146C104.438 44.271 104.172 44.5419 104.042 44.9481L102.089 51.3544L98.198 45.9012C97.9532 45.5627 97.6251 45.3908 97.2032 45.3908H97.1824L90.4949 45.5054L94.4689 40.12C94.7241 39.7762 94.7814 39.4012 94.646 38.995L92.4793 32.6617L98.8282 34.7814C99.2345 34.9221 99.6043 34.8596 99.948 34.5992L105.292 30.5731L105.234 37.271C105.234 37.7033 105.406 38.0367 105.761 38.2867L111.24 42.1252L104.849 44.146Z" fill="black"/>
</g>
</svg>
