<svg width="43" height="45" viewBox="0 0 43 45" fill="none" xmlns="http://www.w3.org/2000/svg">
<mask id="mask0_8_3860" style="mask-type:luminance" maskUnits="userSpaceOnUse" x="0" y="0" width="43" height="45">
<path d="M0.869873 0.536499H42.8386V44.5H0.869873V0.536499Z" fill="white"/>
</mask>
<g mask="url(#mask0_8_3860)">
<path d="M21.8542 2.27091V1.47924C21.8542 0.895905 21.2188 0.552154 20.7397 0.875072L18.448 2.42195C18.0209 2.70841 18.0209 3.33861 18.448 3.63028L20.7397 5.17716C21.2188 5.49486 21.8542 5.15111 21.8542 4.57299V3.77611C32.5365 3.77611 41.224 12.573 41.224 23.3855C41.224 34.1928 32.5365 42.9897 21.8542 42.9897C11.1772 42.9897 2.48446 34.1928 2.48446 23.3855C2.48446 22.9688 2.15112 22.6303 1.73966 22.6303C1.32821 22.6303 0.994873 22.9688 0.994873 23.3855C0.994873 35.0313 10.349 44.5001 21.8542 44.5001C33.3595 44.5001 42.7136 35.0313 42.7136 23.3855C42.7136 11.7397 33.3595 2.27091 21.8542 2.27091Z" fill="#040606"/>
</g>
</svg>
