<svg width="32" height="27" viewBox="0 0 32 27" fill="none" xmlns="http://www.w3.org/2000/svg">
<mask id="mask0_8_4092" style="mask-type:luminance" maskUnits="userSpaceOnUse" x="0" y="0" width="32" height="27">
<path d="M0.1875 0.671875H31.1615V26.651H0.1875V0.671875Z" fill="white"/>
</mask>
<g mask="url(#mask0_8_4092)">
<path d="M10.2917 0.890576C10.2552 0.755159 10.1302 0.671826 9.99478 0.708285C9.90624 0.729118 9.83332 0.802034 9.81249 0.890576C9.38019 2.50516 8.31249 5.49474 5.96874 7.31766C4.33853 8.58849 2.43228 9.46349 0.411445 9.87495C0.276027 9.90099 0.187487 10.026 0.213528 10.1614C0.234361 10.2552 0.302069 10.3229 0.390611 10.3541C2.03124 10.8125 4.89061 11.8125 6.33853 13.5208C7.48436 14.8697 8.50519 18.2447 8.9479 19.8958C8.98957 20.026 9.12499 20.1041 9.24999 20.0625C9.33332 20.0416 9.40103 19.9739 9.42186 19.8958C9.88019 18.2187 11.0625 14.7447 13.2812 13.2708C15.2656 11.9479 17.4687 11.2864 18.7135 10.9947C18.8489 10.9583 18.9219 10.8229 18.8906 10.6875C18.8698 10.6093 18.8073 10.5416 18.7292 10.5208C17.2239 10.0781 14.4271 9.07287 13.2812 7.56766C11.5052 5.23433 10.651 2.42703 10.2917 0.890576ZM22.75 14.7395C22.7292 14.6562 22.651 14.6093 22.5677 14.6302C22.5156 14.6458 22.4739 14.6875 22.4635 14.7395C22.1979 15.7291 21.5469 17.5572 20.1094 18.6666C19.1094 19.4427 17.9479 19.9739 16.7083 20.2239C16.625 20.2395 16.5729 20.3177 16.5937 20.401C16.6042 20.4531 16.6458 20.5 16.6979 20.5156C17.7031 20.7968 19.4531 21.4062 20.3385 22.4479C21.0417 23.2708 21.6614 25.3437 21.9375 26.3541C21.9583 26.4322 22.0417 26.4791 22.1198 26.4583C22.1719 26.4479 22.2031 26.4062 22.2239 26.3541C22.5104 25.3281 23.2292 23.2031 24.5833 22.302C25.7969 21.4947 27.1458 21.0885 27.9062 20.9062C27.9896 20.8854 28.0364 20.8072 28.0156 20.7239C28 20.6718 27.9635 20.6302 27.9114 20.6145C26.9896 20.3385 25.2864 19.7343 24.5833 18.8125C23.4948 17.401 22.9739 15.6822 22.75 14.7395ZM27.6771 3.4687C27.6667 3.41662 27.6094 3.38537 27.5573 3.39578C27.5208 3.40099 27.4948 3.43224 27.4844 3.4687C27.3073 4.13016 26.875 5.33849 25.9167 6.07808C25.2604 6.5937 24.4844 6.94787 23.6614 7.11453C23.6094 7.13016 23.5729 7.17703 23.5781 7.22912C23.5885 7.27078 23.6146 7.29683 23.6562 7.30724C24.3229 7.49474 25.4792 7.90099 26.0729 8.5937C26.5364 9.14058 26.9479 10.5156 27.1302 11.1822C27.1458 11.2343 27.1979 11.2604 27.2552 11.25C27.2864 11.2395 27.3125 11.2135 27.3229 11.1822C27.5104 10.5 27.9896 9.0937 28.8906 8.48953C29.6927 7.95308 30.5885 7.68745 31.1042 7.56766C31.1562 7.55724 31.1875 7.49995 31.1771 7.44787C31.1667 7.41141 31.1406 7.38537 31.1094 7.37495C30.4948 7.19266 29.3646 6.78641 28.8958 6.17183C28.1771 5.23433 27.8281 4.09891 27.6771 3.4687Z" fill="#F9525F"/>
</g>
</svg>
