<svg width="320" height="165" viewBox="0 0 320 165" fill="none" xmlns="http://www.w3.org/2000/svg">
<mask id="mask0_8_3416" style="mask-type:luminance" maskUnits="userSpaceOnUse" x="0" y="0" width="320" height="165">
<path d="M319.333 0.666748H0.666748V164.667H319.333V0.666748Z" fill="white"/>
</mask>
<g mask="url(#mask0_8_3416)">
<path d="M104.49 95.1303C103.464 95.1303 102.443 95.1043 101.432 95.047C96.7501 94.797 91.8438 93.9272 86.849 92.4689C86.5626 92.3855 86.2605 92.297 85.8751 92.1772C79.3855 90.1824 72.4949 87.1512 64.8126 82.9064C57.8699 79.0678 50.9011 74.5782 44.4063 70.297C43.4532 69.6668 42.5001 69.0366 41.5417 68.4064C28.8022 59.9897 15.6251 51.2918 2.1355 46.1616L2.48967 45.2345C16.0782 50.4012 29.3022 59.1355 42.0886 67.5835C43.0417 68.2137 43.9949 68.8439 44.948 69.4689C58.047 78.0991 72.0157 86.8855 86.1667 91.2293C86.547 91.3491 86.8438 91.4324 87.1251 91.5157C92.0522 92.9585 96.8803 93.8126 101.484 94.0574C115.521 94.8074 129.479 90.0366 142.474 84.7657C145.141 83.6824 147.719 82.6043 150.807 81.3074L151.26 81.1147C160.917 77.0522 170.901 72.8491 180.885 70.3335C181.412 70.198 181.927 70.073 182.412 69.9585C193.401 67.3699 204.99 66.5782 217.833 67.5314C228.26 68.3126 239.526 70.2293 253.292 73.573C261.625 75.5939 270.089 77.948 278.271 80.2189L278.438 80.2657C285.719 82.2918 293.245 84.3803 300.625 86.2293C304.453 87.1876 308.188 88.047 311.719 88.7814C314.182 89.2918 316.646 89.7657 319.047 90.1876L318.875 91.1616C316.469 90.7397 313.99 90.2657 311.516 89.7501C307.969 89.0105 304.224 88.1512 300.385 87.1876C292.995 85.3387 285.458 83.2449 278.177 81.2189L278.005 81.172C269.828 78.9012 261.375 76.5522 253.057 74.5314C232.182 69.4637 207.49 65.0678 182.635 70.922C182.156 71.0366 181.651 71.1564 181.13 71.2918C171.214 73.7918 161.266 77.9793 151.646 82.0262L151.193 82.2189C148.099 83.521 145.521 84.5991 142.849 85.6824C137.234 87.9585 129.833 90.8126 122.323 92.7137C115.943 94.3335 110.073 95.1303 104.49 95.1303Z" fill="#F9525F"/>
<path d="M314.401 104.427C309.021 104.427 303.635 104.083 298.323 103.396C298.016 103.359 297.677 103.313 297.286 103.26C282.141 101.188 267.161 96.4272 254.51 92.0417C250.281 90.5782 246.193 89.1095 241.292 87.3438L240.823 87.1772C221.734 80.3022 201.995 73.1928 182.469 70.9324C173.724 69.922 165.656 69.9167 157.797 70.922C152.807 71.5626 147.531 72.672 141.672 74.3074C137.958 75.3438 134.052 76.5782 129.385 78.1876C125.63 79.4792 121.818 80.8647 118.13 82.2084C108.115 85.8542 97.75 89.6199 87.4635 91.8959C86.9896 92.0001 86.5469 92.099 86.1198 92.1876C82.9792 92.8438 80.0469 93.3178 77.1562 93.6407C73.7604 94.0261 70.4167 94.1928 67.2135 94.1303C59.1615 93.9845 50.8646 92.4167 42.5469 89.474C34.9271 86.7813 26.9844 82.8178 18.9427 77.698C13.4948 74.2292 7.79687 70.099 2 65.4167L2.61979 64.6511C8.38542 69.3074 14.0573 73.4167 19.474 76.8647C36.2344 87.5365 51.8542 92.8595 67.2292 93.1407C70.3906 93.2032 73.6927 93.0365 77.0417 92.6563C79.9062 92.3386 82.8073 91.8647 85.9167 91.2188C86.3438 91.1303 86.7812 91.0365 87.25 90.9324C97.474 88.6667 107.802 84.9115 117.792 81.2761C121.484 79.9324 125.302 78.547 129.062 77.2501C133.75 75.6355 137.672 74.3959 141.406 73.3542C147.312 71.7032 152.63 70.5886 157.672 69.9428C165.609 68.9272 173.76 68.9272 182.583 69.948C191.396 70.9688 201 73.0522 211.943 76.323C221.693 79.2345 231.589 82.797 241.156 86.2449L241.63 86.4115C246.526 88.1772 250.609 89.6407 254.839 91.1095C267.443 95.474 282.359 100.219 297.422 102.276C297.807 102.333 298.141 102.38 298.448 102.417C305.214 103.287 312.109 103.604 318.943 103.354L318.979 104.344C317.453 104.396 315.927 104.427 314.401 104.427Z" fill="#F9525F"/>
<mask id="mask1_8_3416" style="mask-type:luminance" maskUnits="userSpaceOnUse" x="2" y="106" width="318" height="59">
<path d="M2 106H319.333V164.24H2V106Z" fill="white"/>
</mask>
<g mask="url(#mask1_8_3416)">
<path d="M287.75 164.12C282.958 164.12 278.172 163.938 273.401 163.573C258.172 162.422 242.938 159.406 228.104 154.62C217.807 151.292 207.557 147.057 197.646 142.037C195.068 140.729 192.359 139.297 189.359 137.651C185.443 135.51 181.469 133.25 177.625 131.068C174.026 129.021 170.307 126.906 166.646 124.896C151.823 116.745 135.812 109.026 119.193 107.719C117.526 107.594 115.812 107.521 114.089 107.516C113.99 107.516 113.891 107.516 113.792 107.516C102.062 107.516 90.1771 110.344 78.6823 113.078C75.776 113.771 72.7708 114.484 69.8177 115.146C68.6146 115.417 67.4271 115.672 66.2917 115.906C65.9635 115.974 65.6302 116.042 65.3021 116.109C64.4479 116.287 63.5781 116.458 62.7292 116.62C49.4688 119.146 36.026 120.417 22.5729 120.417C15.7969 120.417 9.02604 120.094 2.26562 119.453L2.35937 118.469C22.4427 120.38 42.6927 119.432 62.5417 115.646C63.3906 115.484 64.25 115.313 65.1042 115.141C65.4375 115.073 65.7604 115.005 66.0885 114.938C67.2188 114.703 68.401 114.448 69.6042 114.177C72.5521 113.521 75.5521 112.807 78.4531 112.115C90.0052 109.37 101.948 106.526 113.792 106.526C113.891 106.526 113.995 106.526 114.094 106.526C115.839 106.531 117.578 106.604 119.271 106.734C136.078 108.052 152.203 115.823 167.125 124.026C170.792 126.047 174.516 128.162 178.115 130.208C181.953 132.391 185.922 134.646 189.833 136.787C192.823 138.422 195.526 139.849 198.094 141.151C207.958 146.151 218.156 150.365 228.411 153.677C258.125 163.271 288.562 165.589 318.88 160.563L319.042 161.542C308.688 163.255 298.214 164.12 287.75 164.12Z" fill="#F9525F"/>
</g>
<mask id="mask2_8_3416" style="mask-type:luminance" maskUnits="userSpaceOnUse" x="2" y="74" width="318" height="58">
<path d="M2 74.771H319.333V131.63H2V74.771Z" fill="white"/>
</mask>
<g mask="url(#mask2_8_3416)">
<path d="M215.359 131.568C209.896 131.568 204.297 131.287 198.63 130.729C190.901 129.964 182.865 128.656 174.75 126.849C172.13 126.266 169.448 125.625 166.76 124.943C149.917 120.641 133.453 114.854 113.917 107.484C110.474 106.188 106.979 104.854 103.599 103.568C97.2709 101.156 90.7292 98.6668 84.2917 96.2918C81.6824 95.3282 79.2761 94.4532 76.9324 93.6147C65.0365 89.3543 55.1147 86.1616 45.7032 83.573C36.5522 81.047 27.6095 79.0991 19.1355 77.771C15.8126 77.2501 12.4688 76.8074 9.19279 76.4689C6.88029 76.2241 4.55216 76.0262 2.27612 75.8751L2.34383 74.8907C4.63029 75.0366 6.96883 75.2397 9.29696 75.4845C12.5886 75.8282 15.948 76.2657 19.2865 76.7918C27.8022 78.1251 36.7761 80.0835 45.9688 82.6199C55.4011 85.2137 65.3438 88.4168 77.2657 92.6876C79.6095 93.5262 82.0209 94.4012 84.6303 95.3647C91.0782 97.7397 97.6199 100.234 103.948 102.641C107.328 103.927 110.828 105.261 114.266 106.557C133.771 113.912 150.203 119.693 167.005 123.984C169.682 124.662 172.359 125.302 174.964 125.886C183.042 127.682 191.037 128.984 198.729 129.745C206.76 130.537 214.667 130.771 222.224 130.427C250.776 129.141 275.948 119.703 297.042 102.386C298.948 100.818 300.854 99.1616 302.708 97.4585C305.526 94.8647 308.401 91.9949 311.255 88.9272C313.635 86.3699 316.104 83.5678 318.583 80.5991L319.339 81.2293C316.849 84.2137 314.375 87.0314 311.979 89.6043C309.109 92.6876 306.214 95.573 303.375 98.1876C301.51 99.9012 299.594 101.573 297.667 103.151C286.615 112.229 274.344 119.224 261.198 123.943C249.109 128.281 236.016 130.797 222.271 131.417C219.995 131.521 217.693 131.568 215.359 131.568Z" fill="#F9525F"/>
</g>
<path d="M29.5052 133.042C25.8802 133.042 22.1927 132.693 18.4792 131.99C13.0625 130.969 7.55208 129.198 2.10938 126.724L2.51563 125.823C25.5104 136.271 47.8594 133.505 65.4479 118.037C66.0521 117.505 66.6458 116.964 67.2188 116.422C67.2604 116.386 67.2969 116.349 67.3281 116.318C68 115.682 68.6823 115.011 69.3542 114.318C73.9792 109.578 78.651 103.62 84.0521 95.5523C84.8542 94.3491 85.7031 93.0575 86.5729 91.7241L86.5885 91.6981C86.7083 91.5158 86.8229 91.3335 86.9427 91.146C88.875 88.1564 90.8125 85.0731 92.6875 82.0835C96.474 76.0523 100.391 69.8179 104.443 64.0731C107.656 59.5158 110.651 55.6981 113.604 52.396C114.833 51.021 116.078 49.7085 117.312 48.5002C121.776 44.1043 126.646 40.4116 131.786 37.5314L131.896 37.4689C137.714 34.2241 144.036 31.9168 150.703 30.6148C156.885 29.4012 163.536 29.021 170.464 29.4845C176.766 29.9064 183.484 31.0314 190.432 32.8439C196.62 34.4533 203.188 36.6564 209.964 39.3908C217.464 42.4168 225.068 45.8908 232.417 49.2554C235.526 50.6773 238.745 52.146 241.906 53.5627C247.823 56.2085 255.625 59.6095 263.536 62.4168C277.281 67.2918 288.807 69.5314 299.802 69.4585C300.656 69.4585 301.526 69.4377 302.38 69.4012C307.833 69.1825 313.365 68.271 318.823 66.6877L319.099 67.6356C313.562 69.2398 307.953 70.172 302.422 70.3908C301.552 70.4273 300.677 70.4481 299.807 70.4481C288.693 70.521 277.062 68.2606 263.208 63.3491C255.26 60.5314 247.438 57.12 241.505 54.4637C238.333 53.047 235.12 51.5783 232.005 50.1564C224.667 46.797 217.073 43.3283 209.594 40.3075C177.995 27.5575 152.703 26.9325 132.271 38.396L132.156 38.4585C127.135 41.2866 122.375 44.9012 118.005 49.2033C116.792 50.4012 115.557 51.6981 114.344 53.0575C111.417 56.3283 108.443 60.12 105.25 64.646C101.214 70.3648 97.3073 76.5939 93.526 82.6148C91.651 85.5991 89.7083 88.6877 87.776 91.6825C87.6562 91.8648 87.5365 92.0523 87.4167 92.2346L87.401 92.2606C86.5312 93.5991 85.6823 94.8908 84.8698 96.1043C79.4375 104.219 74.7292 110.229 70.0625 115.011C69.3802 115.709 68.6927 116.391 68.0104 117.031C67.974 117.073 67.9323 117.11 67.8906 117.146C67.3177 117.688 66.7135 118.24 66.099 118.781C56.849 126.917 46.3698 131.625 34.9635 132.771C33.1667 132.953 31.3438 133.042 29.5052 133.042Z" fill="#F9525F"/>
<mask id="mask3_8_3416" style="mask-type:luminance" maskUnits="userSpaceOnUse" x="2" y="4" width="318" height="134">
<path d="M2 4.271H319.333V137.802H2V4.271Z" fill="white"/>
</mask>
<g mask="url(#mask3_8_3416)">
<path d="M254.792 137.479C246.312 137.479 238.036 136.334 230.036 134.047C227.411 133.297 224.729 132.401 222.068 131.386C216.927 129.422 211.583 126.901 206.177 123.891C192.62 116.339 179.849 106.37 170.234 98.5262C164.708 94.0158 159.125 89.2919 153.724 84.719C152.708 83.8596 151.698 83.0002 150.682 82.1408C147.693 79.6148 144.484 76.9065 141.224 74.2085C136.703 70.4637 132.729 67.2658 129.083 64.4273C124.036 60.5106 118.859 56.7085 113.693 53.1356C78.3229 28.6669 40.8229 12.6512 2.21875 5.53145L2.40104 4.5575C21.599 8.09916 40.8073 13.9377 59.4792 21.9065C78.1927 29.8908 96.625 40.1252 114.255 52.3231C119.438 55.9065 124.63 59.7137 129.688 63.646C133.349 66.4898 137.328 69.6929 141.859 73.4481C145.115 76.146 148.333 78.8596 151.318 81.3856C152.333 82.2398 153.349 83.1044 154.365 83.9637C159.76 88.5315 165.344 93.2554 170.859 97.7606C180.443 105.578 193.172 115.511 206.661 123.026C212.021 126.011 217.328 128.516 222.422 130.459C225.057 131.469 227.708 132.354 230.307 133.099C257.719 140.927 287.458 135.37 318.703 116.568L319.214 117.412C304.349 126.36 289.531 132.396 275.177 135.349C268.281 136.771 261.474 137.479 254.792 137.479Z" fill="#F9525F"/>
</g>
<mask id="mask4_8_3416" style="mask-type:luminance" maskUnits="userSpaceOnUse" x="2" y="1" width="318" height="153">
<path d="M2 1.672H319.333V153.396H2V1.672Z" fill="white"/>
</mask>
<g mask="url(#mask4_8_3416)">
<path d="M145.391 153.271C145.354 153.271 145.323 153.271 145.287 153.271C137.365 153.255 130.391 152.594 123.964 151.245C117.849 149.953 112.01 147.99 106.125 145.24C94.7657 139.932 84.0417 132.193 69.1928 121.484C67.9845 120.609 66.7501 119.719 65.4845 118.807C64.3126 117.964 63.2865 117.219 62.3438 116.531C60.2761 115.021 58.1303 113.432 55.7761 111.682C53.9115 110.287 51.9272 108.797 49.7136 107.125C36.1251 96.8751 22.5365 86.6199 8.948 76.3699L6.68758 74.6668C5.13029 73.4897 3.573 72.3126 2.0105 71.1355L2.60946 70.3491C4.16675 71.521 5.72404 72.698 7.28654 73.8751L9.54175 75.5782C23.1303 85.8282 36.7188 96.0835 50.3074 106.339C52.5209 108.005 54.5053 109.495 56.3699 110.886C58.7188 112.641 60.8595 114.224 62.9272 115.729C63.8647 116.417 64.8907 117.162 66.0626 118.005C67.3282 118.917 68.5626 119.807 69.7709 120.682C98.8907 141.688 113.51 152.234 145.292 152.281C151.563 152.292 157.74 151.427 163.662 149.714C172.052 147.292 180.443 143.073 189.313 136.818C192.25 134.745 195.297 132.401 198.365 129.854C200.849 127.797 203.448 125.521 206.083 123.094C214.287 115.537 222.177 107.162 228.818 99.9689C230.958 97.646 233.104 95.297 234.948 93.2814L236.854 91.1928C238.266 89.6407 239.682 88.0939 241.094 86.547L252.807 73.7189C256.208 69.9949 259.609 66.271 263.005 62.547C276.672 47.5835 290.339 32.6147 304.005 17.6512L304.125 17.4532H304.182C307.089 14.271 310 11.0835 312.912 7.89596L318.594 1.672L319.328 2.33866L313.641 8.56262C310.682 11.8022 307.724 15.0418 304.766 18.2814L304.62 18.4428C290.99 33.3699 277.365 48.2918 263.74 63.2137C260.339 66.9376 256.938 70.6616 253.537 74.3855L241.828 87.2137C240.412 88.7605 239 90.3074 237.583 91.8595L235.677 93.948C233.833 95.9637 231.688 98.3126 229.542 100.641C222.896 107.849 214.984 116.24 206.755 123.823C204.104 126.261 201.495 128.547 198.995 130.615C195.912 133.177 192.844 135.537 189.88 137.625C180.922 143.948 172.432 148.214 163.938 150.667C157.958 152.391 151.714 153.271 145.391 153.271Z" fill="#F9525F"/>
</g>
<mask id="mask5_8_3416" style="mask-type:luminance" maskUnits="userSpaceOnUse" x="2" y="40" width="318" height="65">
<path d="M2 40.6667H319.333V104.662H2V40.6667Z" fill="white"/>
</mask>
<g mask="url(#mask5_8_3416)">
<path d="M202.229 104.412C197.531 104.412 192.943 104.052 188.422 103.333C182.62 102.417 176.719 100.87 170.385 98.6094C162.162 95.6771 153.542 91.6875 142.427 85.6615C137.953 83.2344 133.51 80.724 128.979 78.1511L127.76 77.4532C120.198 73.1563 112.375 68.7084 104.625 64.8021C104.125 64.5521 103.63 64.3021 103.13 64.0573C70.6824 47.974 36.7657 40.5105 2.32821 41.8698L2.29175 40.8855C19.3855 40.2084 36.6251 41.7448 53.5313 45.4532C70.5365 49.1771 87.3699 55.1407 103.568 63.1667C104.068 63.4167 104.568 63.6667 105.068 63.9167C112.844 67.8386 120.677 72.2917 128.25 76.5938L129.469 77.2865C134 79.8594 138.432 82.3698 142.896 84.7917C153.964 90.7917 162.547 94.7657 170.714 97.6771C176.99 99.9167 182.833 101.448 188.578 102.359C201.234 104.365 214.474 103.537 229.057 99.823C236.901 97.8282 245.219 94.9792 254.484 91.1198C261.307 88.2761 268.568 84.9323 278.021 80.2813C282.13 78.2605 286.313 76.1563 290.359 74.1303C293.38 72.6094 296.51 71.0417 299.589 69.5105C307.323 65.6719 313.234 62.8594 318.755 60.3803L319.162 61.2865C313.651 63.7553 307.75 66.5678 300.026 70.3959C296.948 71.9271 293.823 73.4948 290.802 75.0105C286.755 77.0469 282.573 79.1459 278.458 81.1667C268.984 85.8282 261.708 89.1823 254.865 92.0313C245.552 95.9115 237.193 98.7761 229.302 100.781C219.781 103.208 210.828 104.412 202.229 104.412Z" fill="#F9525F"/>
</g>
<mask id="mask6_8_3416" style="mask-type:luminance" maskUnits="userSpaceOnUse" x="2" y="2" width="318" height="66">
<path d="M2 2.96887H319.333V67.297H2V2.96887Z" fill="white"/>
</mask>
<g mask="url(#mask6_8_3416)">
<path d="M201.146 67.2085C196.792 67.2085 192.37 66.7085 187.724 65.6981C182.302 64.521 176.708 62.672 170.625 60.047C159.349 55.1772 148.089 48.3179 137.198 41.6824C135.458 40.6252 133.656 39.5262 131.891 38.4585L131.771 38.3856C128.281 36.2762 123.672 33.521 119.005 30.9324C87.3438 13.3699 53.0729 4.2814 18.974 4.2814C13.4271 4.2814 7.88542 4.52619 2.35417 5.00536L2.26562 4.02099C22.0729 2.28661 42.0729 3.60953 61.7135 7.95849C81.4792 12.3283 100.911 19.7658 119.49 30.0679C124.12 32.6356 128.688 35.3699 132.172 37.4741L132.281 37.5418C134.094 38.6356 135.932 39.7554 137.714 40.8387C159.432 54.0679 181.891 67.7502 205.151 66.0731C218.464 65.1147 230.979 59.2189 241.469 53.5783C245.969 51.1616 250.526 48.5262 254.547 46.2033C271.042 36.6668 287.531 27.1304 304.021 17.5991L304.089 17.4533H304.266C307.312 15.6929 310.365 13.9324 313.411 12.1668L318.714 9.10432L319.208 9.95849L313.906 13.0262C310.844 14.797 307.781 16.5679 304.719 18.3335L304.646 18.3804C288.115 27.9377 271.578 37.5002 255.042 47.0574C251.016 49.3856 246.453 52.0262 241.938 54.4481C235.021 58.172 229.271 60.8283 223.849 62.8127C217.203 65.2449 211.109 66.6356 205.219 67.0627C203.865 67.1564 202.51 67.2085 201.146 67.2085Z" fill="#F9525F"/>
</g>
<path d="M186.646 159.984C180.755 159.984 175.052 159.604 169.427 158.844C161.625 157.792 153.682 155.958 145.141 153.245C125.219 146.917 105.438 136.724 86.3073 126.865C80.0938 123.662 73.6719 120.354 67.3385 117.224C66.5729 116.844 65.8073 116.469 65.0469 116.099L64.9896 116.068C61.724 114.474 58.7396 113.057 55.8698 111.734C54.6354 111.162 53.3854 110.599 52.1615 110.047C33.9115 101.891 17.5885 96.9949 2.25 95.0678L2.36979 94.0886C10.4271 95.099 18.9635 96.9845 27.75 99.698C35.6302 102.13 43.9792 105.307 52.5625 109.146C53.7917 109.698 55.0469 110.266 56.2812 110.833C59.1615 112.162 62.151 113.583 65.4219 115.177L65.4792 115.208C66.2448 115.583 67.0104 115.958 67.776 116.339C74.1198 119.469 80.5417 122.781 86.7604 125.984C105.854 135.823 125.599 146 145.438 152.302C153.922 155 161.812 156.818 169.557 157.865C187.193 160.25 205.807 158.917 228.146 153.667C245.49 149.589 263.021 143.604 279.974 137.813C284.047 136.422 288.255 134.984 292.391 133.599C302.635 130.162 311.036 127.557 318.828 125.412L319.094 126.365C311.318 128.51 302.932 131.104 292.703 134.537C288.573 135.922 284.365 137.359 280.297 138.75C263.318 144.547 245.76 150.542 228.37 154.63C217.771 157.12 208.156 158.698 198.969 159.458C194.75 159.807 190.656 159.984 186.646 159.984Z" fill="#F9525F"/>
</g>
</svg>
